<?xml version="1.0" encoding="utf-8"?>
<!-- Generator: Adobe Illustrator 22.0.0, SVG Export Plug-In . SVG Version: 6.00 Build 0)  -->
<svg version="1.1" id="Layer_1" xmlns="http://www.w3.org/2000/svg" xmlns:xlink="http://www.w3.org/1999/xlink" x="0px" y="0px"
	 viewBox="0 0 16 16" style="enable-background:new 0 0 16 16;" xml:space="preserve">
<style type="text/css">
	.st0{fill:#FFFFFF;}
</style>
<path class="st0" d="M4.7,2.7c0-0.7,0.6-1.3,1.3-1.3h4c0.7,0,1.3,0.6,1.3,1.3V4H14c0.4,0,0.7,0.3,0.7,0.7S14.4,5.3,14,5.3h-0.7
	l-0.6,8.1c0,0.7-0.6,1.2-1.3,1.2H4.6c-0.7,0-1.3-0.5-1.3-1.2L2.7,5.3H2C1.6,5.3,1.3,5,1.3,4.7S1.6,4,2,4h2.7V2.7z M6,4h4V2.7H6V4z
	 M4,5.3l0.6,8h6.8l0.6-8H4z"/>
</svg>
