<?xml version="1.0" encoding="utf-8"?>
<!-- Generator: Adobe Illustrator 22.0.0, SVG Export Plug-In . SVG Version: 6.00 Build 0)  -->
<svg version="1.1" id="Layer_1" xmlns="http://www.w3.org/2000/svg" xmlns:xlink="http://www.w3.org/1999/xlink" x="0px" y="0px"
	 viewBox="0 0 16 16" style="enable-background:new 0 0 16 16;" xml:space="preserve">
<style type="text/css">
	.st0{fill:#FFFFFF;}
</style>
<path class="st0" d="M6.8,11.8h5.8v-1.7H6.8V11.8z M6.8,8.4h5.8V6.7H6.8V8.4z M4.3,5.1h8.3V3.4H4.3V5.1z M4,15.9
	c-1.1,0-2-0.4-2.8-1.2C0.4,14,0,13,0,11.9c0-0.8,0.2-1.5,0.6-2.1c0.4-0.6,0.9-1.1,1.6-1.4H0.1V6.7h5v5H3.5v-2
	C3,9.8,2.5,10.1,2.2,10.5c-0.3,0.4-0.5,0.9-0.5,1.4c0,0.6,0.3,1.3,0.8,1.7c0.4,0.4,0.9,0.6,1.5,0.6V15.9z M6.8,15.1v-1.7H14
	c0.2,0,0.3-0.2,0.3-0.3v-11c0-0.2-0.2-0.3-0.3-0.3H3c-0.2,0-0.3,0.2-0.3,0.3v3H1l0-3.3c0-0.4,0.2-0.9,0.4-1.2
	c0.3-0.4,0.7-0.5,1.2-0.5l11.6,0c0.4,0,0.9,0.2,1.2,0.4C15.8,0.9,16,1.3,16,1.7l0,11.6c0,0.4-0.2,0.9-0.4,1.2
	c-0.3,0.4-0.7,0.5-1.2,0.5H6.8z"/>
</svg>
