<?xml version="1.0" encoding="utf-8"?>
<!-- Generator: Adobe Illustrator 22.0.0, SVG Export Plug-In . SVG Version: 6.00 Build 0)  -->
<svg version="1.1" id="Layer_1" xmlns="http://www.w3.org/2000/svg" xmlns:xlink="http://www.w3.org/1999/xlink" x="0px" y="0px"
	 viewBox="0 0 16 16" style="enable-background:new 0 0 16 16;" xml:space="preserve">
<style type="text/css">
	.st0{fill:#FFFFFF;}
</style>
<path class="st0" d="M2.7,2.7c0-0.7,0.6-1.3,1.3-1.3h5.3c0.2,0,0.3,0.1,0.5,0.2l3.3,3.3c0.1,0.1,0.2,0.3,0.2,0.5v8
	c0,0.7-0.6,1.3-1.3,1.3H4c-0.7,0-1.3-0.6-1.3-1.3V2.7z M11.7,5.3L9.3,2.9v2.4H11.7z M8,2.7H4v10.7h8V6.7H8.7C8.3,6.7,8,6.4,8,6V2.7z
	"/>
</svg>
