<?xml version="1.0" encoding="utf-8"?>
<!-- Generator: Adobe Illustrator 22.0.0, SVG Export Plug-In . SVG Version: 6.00 Build 0)  -->
<svg version="1.1" id="Layer_1" xmlns="http://www.w3.org/2000/svg" xmlns:xlink="http://www.w3.org/1999/xlink" x="0px" y="0px"
	 viewBox="0 0 16 16" style="enable-background:new 0 0 16 16;" xml:space="preserve">
<style type="text/css">
	.st0{fill:#FFFFFF;}
</style>
<path class="st0" d="M6.7,2.7c-2.2,0-4,1.8-4,4s1.8,4,4,4s4-1.8,4-4S8.9,2.7,6.7,2.7 M1.3,6.7c0-2.9,2.4-5.3,5.3-5.3
	c2.9,0,5.3,2.4,5.3,5.3c0,1.2-0.4,2.3-1.1,3.3l3.6,3.6c0.3,0.3,0.2,0.7,0,0.9c-0.3,0.2-0.7,0.2-0.9,0l-3.6-3.6
	c-2.3,1.8-5.7,1.4-7.5-0.9C1.7,9,1.3,7.8,1.3,6.7"/>
</svg>
