<?xml version="1.0" encoding="utf-8"?>
<!-- Generator: Adobe Illustrator 22.0.0, SVG Export Plug-In . SVG Version: 6.00 Build 0)  -->
<svg version="1.1" id="Layer_1" xmlns="http://www.w3.org/2000/svg" xmlns:xlink="http://www.w3.org/1999/xlink" x="0px" y="0px"
	 viewBox="0 0 16 16" style="enable-background:new 0 0 16 16;" xml:space="preserve">
<style type="text/css">
	.st0{fill:#6FBE44;}
	.st1{fill:#FFFFFF;}
</style>
<g>
	<polygon class="st0" points="14.5,11.1 11.9,11.1 11.9,8.5 10.1,8.5 10.1,11.1 7.5,11.1 7.5,12.9 10.1,12.9 10.1,15.5 11.9,15.5 
		11.9,12.9 14.5,12.9 	"/>
</g>
<g>
	<path class="st1" d="M9.9,10.9V9.6C9.7,8.5,9.6,7.4,9.6,7.4s2.6-3.2,3.3-3.2c0.6,0,0.7,1.3,0.7,1.3h1.1c0,0,2.1-3.6-0.4-3.6
		c-2.5,0-4.8,3.8-4.8,3.8s0.4-3.8-1.4-3.8c-1.8,0-5.9,4.5-5.9,4.5L3,7.3c0,0,2.8-3,3.2-3c0.5,0,0.7,4,0.7,4s-2.6,3.2-3.7,3.2
		c-0.5,0-1.2-0.6-1.2-0.6l-1.5,2.7c0,0,0.5,0.5,1.7,0.5c2.3,0,5-4.3,5-4.3s0,0.5,0.1,1.1v0H9.9z"/>
	<path class="st1" d="M7.9,13.1c0.3,0.6,0.8,1,1.5,1c0.2,0,0.3,0,0.5-0.1v-0.9H7.9z"/>
	<path class="st1" d="M13.8,9.3c0,0-0.7,0.9-1.5,1.6h2c0.4-0.4,0.6-0.6,0.6-0.6L13.8,9.3z"/>
</g>
</svg>
