<?xml version="1.0" encoding="utf-8"?>
<!-- Generator: Adobe Illustrator 22.0.0, SVG Export Plug-In . SVG Version: 6.00 Build 0)  -->
<svg version="1.1" id="Layer_1" xmlns="http://www.w3.org/2000/svg" xmlns:xlink="http://www.w3.org/1999/xlink" x="0px" y="0px"
	 viewBox="0 0 16 16" style="enable-background:new 0 0 16 16;" xml:space="preserve">
<style type="text/css">
	.st0{fill:#6FBE44;}
	.st1{fill:#6F91F0;}
</style>
<g>
	<polygon class="st0" points="15.5,11.1 12.9,11.1 12.9,8.5 11.1,8.5 11.1,11.1 8.5,11.1 8.5,12.9 11.1,12.9 11.1,15.5 12.9,15.5 
		12.9,12.9 15.5,12.9 	"/>
</g>
<g>
	<path class="st1" d="M15,8V3h-2v2.8c-1.1-1-2.9-1-4,0C7.8,4.7,5.9,4.8,4.8,6C4.7,6.1,4.6,6.2,4.5,6.3C3.9,5.5,3,5,2,5V3H0v8h2
		c1,0,1.9-0.5,2.5-1.3c0.8,1.2,2.3,1.7,3.6,1.1v-0.1h0.2c0.1-0.1,0.3-0.1,0.4-0.2c0.1-0.1,0.2-0.2,0.3-0.3c0.3,0.2,0.5,0.4,0.8,0.5
		h0.9V9C10.3,8.8,10,8.5,10,8c0-0.6,0.4-1,1-1s1,0.4,1,1c0,0,0,0.1,0,0.1h1.3v1.8c0.1-0.1,0.1-0.1,0.2-0.2c0.3,0.5,0.8,0.8,1.3,1
		h1.1V11c0,0,0.1,0,0.1,0V9C15.4,9,15,8.6,15,8z M2,9V7c0.6,0,1,0.4,1,1S2.6,9,2,9z M7,9C6.4,9,6,8.6,6,8s0.4-1,1-1s1,0.4,1,1
		S7.6,9,7,9z"/>
</g>
</svg>
