<?xml version="1.0" encoding="utf-8"?>
<!-- Generator: Adobe Illustrator 22.0.0, SVG Export Plug-In . SVG Version: 6.00 Build 0)  -->
<svg version="1.1" id="Layer_1" xmlns="http://www.w3.org/2000/svg" xmlns:xlink="http://www.w3.org/1999/xlink" x="0px" y="0px"
	 viewBox="0 0 16 16" style="enable-background:new 0 0 16 16;" xml:space="preserve">
<style type="text/css">
	.st0{fill:#FFFFFF;}
</style>
<path class="st0" d="M3,7.3L2.2,6.4c0,0,4.1-4.5,5.9-4.5s1.4,3.8,1.4,3.8s2.3-3.8,4.8-3.8s0.4,3.6,0.4,3.6h-1.1c0,0-0.1-1.3-0.7-1.3
	S9.6,7.4,9.6,7.4s0.3,4.2,1.3,4.2s2.9-2.4,2.9-2.4l1.1,1c0,0-3.3,3.8-5.6,3.8S7.2,9.8,7.2,9.8s-2.7,4.3-5,4.3
	c-1.1,0-1.7-0.5-1.7-0.5L2,10.9c0,0,0.7,0.6,1.2,0.6C4.4,11.4,7,8.3,7,8.3s-0.2-4-0.7-4C5.8,4.3,3,7.3,3,7.3z"/>
</svg>
