<?xml version="1.0" encoding="utf-8"?>
<!-- Generator: Adobe Illustrator 22.0.0, SVG Export Plug-In . SVG Version: 6.00 Build 0)  -->
<svg version="1.1" id="Layer_1" xmlns="http://www.w3.org/2000/svg" xmlns:xlink="http://www.w3.org/1999/xlink" x="0px" y="0px"
	 viewBox="0 0 24 24" style="enable-background:new 0 0 24 24;" xml:space="preserve">
<style type="text/css">
	.st0{fill:#FFFFFF;}
</style>
<path class="st0" d="M12.8,11h2.5v1.6h-2.5V11z M23.5,5.3v14c0,0.5-0.4,0.8-0.8,0.8H3.8c-1.8,0-3.3-1.5-3.3-3.3V5.3
	C0.5,3.4,2,2,3.8,2h1.6c0.5,0,0.8,0.4,0.8,0.8v1.6h16.4C23.1,4.4,23.5,4.8,23.5,5.3 M4.6,3.6H3.8c-0.9,0-1.6,0.7-1.6,1.6v8.7
	c0.5-0.3,1.1-0.4,1.6-0.4h0.8V3.6z M16.9,12.6V11h1.6c0.5,0,0.8-0.4,0.8-0.8S19,9.4,18.6,9.4h-1.6V8.5c0-0.5-0.4-0.8-0.8-0.8
	c-0.5,0-0.8,0.4-0.8,0.8v0.8h-2.5V8.5c0-0.5-0.4-0.8-0.8-0.8c-0.5,0-0.8,0.4-0.8,0.8v0.8H9.5c-0.5,0-0.8,0.4-0.8,0.8S9.1,11,9.5,11
	h1.6v1.6H9.5c-0.5,0-0.8,0.4-0.8,0.8s0.4,0.8,0.8,0.8h1.6v0.8c0,0.5,0.4,0.8,0.8,0.8c0.5,0,0.8-0.4,0.8-0.8v-0.8h2.5v0.8
	c0,0.5,0.4,0.8,0.8,0.8c0.5,0,0.8-0.4,0.8-0.8v-0.8h1.6c0.5,0,0.8-0.4,0.8-0.8s-0.4-0.8-0.8-0.8H16.9z"/>
</svg>
