<?xml version="1.0" encoding="utf-8"?>
<!-- Generator: Adobe Illustrator 22.0.0, SVG Export Plug-In . SVG Version: 6.00 Build 0)  -->
<svg version="1.1" id="Layer_1" xmlns="http://www.w3.org/2000/svg" xmlns:xlink="http://www.w3.org/1999/xlink" x="0px" y="0px"
	 viewBox="0 0 24 24" style="enable-background:new 0 0 24 24;" xml:space="preserve">
<style type="text/css">
	.st0{fill:#FFFFFF;}
	.st1{fill:#6FBE44;}
</style>
<path class="st0" d="M22.2,4.7H6.5V3.1c0-0.4-0.4-0.8-0.8-0.8H4.1C2.4,2.4,1,3.8,1,5.5v11c0,1.7,1.4,3.1,3.1,3.1h18.1
	c0.4,0,0.8-0.4,0.8-0.8V5.5C23,5.1,22.6,4.7,22.2,4.7 M2.6,5.5c0-0.9,0.7-1.6,1.6-1.6h0.8v9.4H4.1c-0.6,0-1.1,0.1-1.6,0.4V5.5z
	 M21.4,18.1H4.1c-0.9,0-1.6-0.7-1.6-1.6c0-0.9,0.7-1.6,1.6-1.6h1.6c0.4,0,0.8-0.4,0.8-0.8V6.3h14.9V18.1z M9.6,12.6
	c-0.4,0-0.8,0.4-0.8,0.8c0,0.4,0.4,0.8,0.8,0.8h1.6v0.8c0,0.4,0.4,0.8,0.8,0.8s0.8-0.4,0.8-0.8v-0.8h2.4v0.8c0,0.4,0.4,0.8,0.8,0.8
	c0.4,0,0.8-0.4,0.8-0.8v-0.8h1.6c0.4,0,0.8-0.4,0.8-0.8c0-0.4-0.4-0.8-0.8-0.8h-1.6V11h1.6c0.4,0,0.8-0.4,0.8-0.8s-0.4-0.8-0.8-0.8
	h-1.6V8.6c0-0.4-0.4-0.8-0.8-0.8c-0.4,0-0.8,0.4-0.8,0.8v0.8h-2.4V8.6c0-0.4-0.4-0.8-0.8-0.8s-0.8,0.4-0.8,0.8v0.8H9.6
	c-0.4,0-0.8,0.4-0.8,0.8S9.2,11,9.6,11h1.6v1.6H9.6z M12.8,11h2.4v1.6h-2.4V11z"/>
<path class="st1" d="M19,12.9v3h3v3h-3v3h-3v-3h-3v-3h3v-3H19"/>
</svg>
