<?xml version="1.0" encoding="utf-8"?>
<!-- Generator: Adobe Illustrator 22.0.0, SVG Export Plug-In . SVG Version: 6.00 Build 0)  -->
<svg version="1.1" id="Layer_1" xmlns="http://www.w3.org/2000/svg" xmlns:xlink="http://www.w3.org/1999/xlink" x="0px" y="0px"
	 viewBox="0 0 24 24" style="enable-background:new 0 0 24 24;" xml:space="preserve">
<style type="text/css">
	.st0{fill:#FFFFFF;}
</style>
<path class="st0" d="M4,5.2c-0.1-0.7,0.4-1.3,1-1.4c0,0,0.1,0,0.1,0C5.6,3.8,6,3.3,6,2.7S5.6,1.6,5.1,1.6c-1.6,0-3,1.6-3,3.5
	c0,0.1,0,0.2,0,0.3l0.3,3.1c0.1,0.7-0.3,1.3-0.9,1.4L1.3,10c-0.9,0.3-1.5,1.4-1.3,2.5c0.2,0.7,0.6,1.3,1.3,1.5l0.2,0.1
	c0.5,0.2,0.9,0.8,0.9,1.4l-0.3,3.1c-0.2,1.9,1,3.6,2.7,3.8c0.1,0,0.2,0,0.3,0c0.5,0,0.9-0.5,0.9-1.1s-0.4-1.1-0.9-1.1
	c-0.6,0-1.1-0.6-1.1-1.2c0,0,0-0.1,0-0.1l0.3-3.1c0.1-1.6-0.7-3.1-2-3.7c1.3-0.6,2.1-2.1,2-3.7L4,5.2z M20,18.8
	c0.1,0.7-0.4,1.3-1,1.4c0,0-0.1,0-0.1,0c-0.5,0-0.9,0.5-0.9,1.1s0.4,1.1,0.9,1.1c1.6,0,3-1.6,3-3.5c0-0.1,0-0.2,0-0.3l-0.3-3.1
	c-0.1-0.7,0.3-1.3,0.9-1.4l0.2-0.1c0.9-0.3,1.5-1.4,1.3-2.5c-0.2-0.7-0.6-1.3-1.3-1.5l-0.2-0.1c-0.5-0.2-0.9-0.8-0.9-1.4l0.3-3.1
	c0.2-1.9-1-3.6-2.7-3.8c-0.1,0-0.2,0-0.3,0c-0.5,0-0.9,0.5-0.9,1.1s0.4,1.1,0.9,1.1c0.6,0,1.1,0.6,1.1,1.4l-0.3,3.1
	c-0.1,1.6,0.7,3.1,2,3.7c-1.3,0.6-2.1,2.1-2,3.7L20,18.8z"/>
<path class="st0" d="M12,20.1H6.7c-0.6,0-1-0.4-1-1s0.4-1,1-1H12c0.6,0,1,0.4,1,1S12.6,20.1,12,20.1z M17.3,16.5H6.7
	c-0.6,0-1-0.4-1-1s0.4-1,1-1h10.6c0.6,0,1,0.4,1,1S17.9,16.5,17.3,16.5z M14.7,13c-0.6,0-1-0.4-1-1v-1.7h-3.3V12c0,0.6-0.4,1-1,1
	s-1-0.4-1-1V7.6c0-2,1.6-3.7,3.7-3.7c2,0,3.7,1.6,3.7,3.7V12C15.7,12.6,15.2,13,14.7,13z M10.3,8.3h3.3V7.6c0-0.9-0.7-1.7-1.7-1.7
	s-1.7,0.7-1.7,1.7V8.3z"/>
</svg>
