<?xml version="1.0" encoding="utf-8"?>
<!-- Generator: Adobe Illustrator 22.0.0, SVG Export Plug-In . SVG Version: 6.00 Build 0)  -->
<svg version="1.1" id="Layer_1" xmlns="http://www.w3.org/2000/svg" xmlns:xlink="http://www.w3.org/1999/xlink" x="0px" y="0px"
	 viewBox="0 0 16 16" style="enable-background:new 0 0 16 16;" xml:space="preserve">
<style type="text/css">
	.st0{fill:#FFFFFF;}
</style>
<path class="st0" d="M10.6,10.3c-0.4,0.2-0.6,0.6-0.6,1c0,0.2-0.1,0.4-0.4,0.5C9.1,11.9,8.6,12,8,12c-0.6,0-1.1-0.1-1.6-0.2
	C6.1,11.7,6,11.5,6,11.3c0-0.4-0.3-0.8-0.6-1C3,8.8,2.3,5.7,3.7,3.4s4.5-3.1,6.9-1.6s3.1,4.5,1.6,6.9C11.8,9.3,11.3,9.9,10.6,10.3
	L10.6,10.3z M6.9,13.4C6.5,13.4,6.1,13.6,6,14c-0.1,0.4,0.2,0.8,0.6,0.9c0,0,0,0,0,0c0.9,0.1,1.8,0.1,2.7,0c0.4-0.1,0.7-0.4,0.6-0.9
	c-0.1-0.4-0.4-0.7-0.9-0.6c0,0,0,0,0,0C8.4,13.5,7.6,13.5,6.9,13.4z"/>
</svg>
