<?xml version="1.0" encoding="utf-8"?>
<!-- Generator: Adobe Illustrator 22.0.0, SVG Export Plug-In . SVG Version: 6.00 Build 0)  -->
<svg version="1.1" id="Layer_1" xmlns="http://www.w3.org/2000/svg" xmlns:xlink="http://www.w3.org/1999/xlink" x="0px" y="0px"
	 viewBox="0 0 16 16" style="enable-background:new 0 0 16 16;" xml:space="preserve">
<style type="text/css">
	.st0{fill:#FFFFFF;}
</style>
<g>
	<path class="st0" d="M2.0626,5.724V8c0,0.248,0.238,0.7,1.169,1.159c0.874,0.43,2.144,0.745,3.62,0.822
		c0.4137,0.0215,0.7315,0.3743,0.71,0.788s-0.3743,0.7315-0.788,0.71l0,0c-1.622-0.085-3.102-0.432-4.204-0.975
		c-0.1734-0.0851-0.3426-0.1786-0.507-0.28V12.5c0,0.133,0.058,0.318,0.282,0.551c0.227,0.237,0.591,0.483,1.101,0.707
		c1.015,0.447,2.47,0.742,4.117,0.742c0.4067,0,0.801-0.0173,1.183-0.052c0.4106-0.0583,0.7908,0.2273,0.8491,0.6379
		c0.0583,0.4106-0.2273,0.7908-0.6379,0.8491c-0.0256,0.0036-0.0514,0.0059-0.0772,0.0069C8.4523,15.98,8.0133,15.9993,7.5626,16
		c-1.805,0-3.475-0.32-4.721-0.869c-0.623-0.274-1.173-0.619-1.579-1.041c-0.408-0.425-0.7-0.964-0.7-1.59v-9
		c0-0.626,0.292-1.165,0.7-1.591c0.406-0.42,0.956-0.766,1.579-1.04C4.0876,0.32,5.7576,0,7.5626,0s3.476,0.32,4.721,0.869
		c0.623,0.274,1.173,0.619,1.579,1.041c0.408,0.425,0.7,0.964,0.7,1.59s-0.292,1.165-0.7,1.591c-0.406,0.42-0.956,0.766-1.578,1.04
		C11.0376,6.68,9.3676,7,7.5626,7s-3.475-0.32-4.721-0.869C2.5723,6.0146,2.312,5.8785,2.0626,5.724 M2.0626,3.5
		c0,0.133,0.058,0.318,0.282,0.551c0.227,0.237,0.591,0.483,1.101,0.707c1.015,0.447,2.47,0.742,4.117,0.742
		s3.101-0.295,4.118-0.742c0.508-0.224,0.873-0.471,1.1-0.708c0.224-0.232,0.282-0.417,0.282-0.55s-0.058-0.318-0.282-0.551
		c-0.227-0.237-0.591-0.483-1.101-0.707c-1.015-0.447-2.47-0.742-4.117-0.742s-3.101,0.295-4.118,0.742
		c-0.508,0.224-0.873,0.471-1.1,0.708C2.1206,3.182,2.0626,3.367,2.0626,3.5"/>
	<path class="st0" d="M14.0526,7.582c0.044-0.2024-0.0844-0.4021-0.2868-0.4461c-0.1396-0.0303-0.2843,0.0213-0.3732,0.1331
		l-3.625,4.625C9.64,12.0571,9.6689,12.2928,9.832,12.4204c0.0658,0.0515,0.147,0.0795,0.2306,0.0796h2.127l-0.619,2.922
		c-0.043,0.2026,0.0863,0.4017,0.2889,0.4447c0.1424,0.0302,0.2894-0.0246,0.3771-0.1407l3.125-4.125
		c0.1248-0.1653,0.092-0.4004-0.0732-0.5252c-0.065-0.0491-0.1443-0.0757-0.2258-0.0758h-1.778L14.0526,7.582z"/>
</g>
</svg>
