<?xml version="1.0" encoding="utf-8"?>
<!-- Generator: Adobe Illustrator 22.0.0, SVG Export Plug-In . SVG Version: 6.00 Build 0)  -->
<svg version="1.1" id="svg1" xmlns:svg="http://www.w3.org/2000/svg"
	 xmlns="http://www.w3.org/2000/svg" xmlns:xlink="http://www.w3.org/1999/xlink" x="0px" y="0px" viewBox="0 0 16 16"
	 style="enable-background:new 0 0 16 16;" xml:space="preserve">
<style type="text/css">
	.st0{fill:#FFFFFF;}
</style>
<g>
	<polygon class="st0" points="8,4.2 4,1 4,2.7 1,2.7 1,5.7 4,5.7 4,7.4 	"/>
</g>
<g>
	<polygon class="st0" points="2,15 4,15 5,11 2,11 	"/>
	<path class="st0" d="M13,5v5C15.6,10,15.6,5,13,5z"/>
	<path class="st0" d="M9.6,4.2L8.7,5l-4,3.2L3,9.5V7.4V6.7H1V10h4c3,0,5,2,7,4V1c-1,1-1.9,1.9-3,2.7L9.6,4.2z"/>
</g>
</svg>
