<?xml version="1.0" encoding="utf-8"?>
<!-- Generator: Adobe Illustrator 22.0.0, SVG Export Plug-In . SVG Version: 6.00 Build 0)  -->
<svg version="1.1" id="Layer_1" xmlns="http://www.w3.org/2000/svg" xmlns:xlink="http://www.w3.org/1999/xlink" x="0px" y="0px"
	 viewBox="0 0 32 32" style="enable-background:new 0 0 32 32;" xml:space="preserve">
<style type="text/css">
	.st0{fill:#45DF54;}
</style>
<path class="st0" d="M1,16C1,7.7,7.7,1,16,1s15,6.7,15,15s-6.7,15-15,15S1,24.3,1,16z M24,11.7c0.6-0.7,0.4-1.8-0.3-2.3
	c-0.7-0.6-1.8-0.4-2.3,0.3c0,0,0,0,0,0.1l-7.2,10l-3.6-3.6c-0.7-0.6-1.7-0.6-2.4,0.1c-0.6,0.6-0.6,1.6,0,2.3l5,5
	c0.6,0.6,1.7,0.6,2.4,0c0.1-0.1,0.1-0.1,0.2-0.2C15.7,23.4,24,11.7,24,11.7z"/>
</svg>
