<?xml version="1.0" encoding="utf-8"?>
<!-- Generator: Adobe Illustrator 22.0.0, SVG Export Plug-In . SVG Version: 6.00 Build 0)  -->
<svg version="1.1" id="Layer_1" xmlns="http://www.w3.org/2000/svg" xmlns:xlink="http://www.w3.org/1999/xlink" x="0px" y="0px"
	 viewBox="0 0 24 24" style="enable-background:new 0 0 24 24;" xml:space="preserve">
<style type="text/css">
	.st0{fill:#FFFFFF;}
</style>
<path class="st0" d="M23,11.5v6.7c0,0.9-0.7,1.6-1.6,1.6H2.6C1.7,19.8,1,19,1,18.2v-6.7c0-0.2,0.2-0.4,0.4-0.4h3.5v6.3
	c0,0.4,0.4,0.8,0.8,0.8c0,0,0,0,0.1,0c0.4,0,0.7-0.4,0.7-0.8v-6.3h3.9v2c0,0.2,0.2,0.4,0.4,0.4h2.4c0.2,0,0.4-0.2,0.4-0.4v-2h3.9
	v6.3c0,0.4,0.4,0.8,0.8,0.8c0,0,0,0,0.1,0c0.4,0,0.7-0.4,0.7-0.8v-6.3h3.5C22.8,11.1,23,11.3,23,11.5 M17.5,3.3h-11
	C3.5,3.3,1,5.7,1,8.8v0.4c0,0.2,0.2,0.4,0.4,0.4h3.5V5.6c0-0.4,0.3-0.8,0.7-0.8c0.4,0,0.8,0.3,0.8,0.7c0,0,0,0,0,0.1v3.9h3.9V8.4
	c0-0.2,0.2-0.4,0.4-0.4h2.4c0.2,0,0.4,0.2,0.4,0.4v1.2h3.9V5.6c0-0.4,0.3-0.8,0.7-0.8c0.4,0,0.8,0.3,0.8,0.7c0,0,0,0,0,0.1v3.9h3.5
	c0.2,0,0.4-0.2,0.4-0.4V8.8C23,5.7,20.5,3.3,17.5,3.3"/>
</svg>
