<?xml version="1.0" encoding="utf-8"?>
<!-- Generator: Adobe Illustrator 22.0.0, SVG Export Plug-In . SVG Version: 6.00 Build 0)  -->
<svg version="1.1" id="Layer_1" xmlns="http://www.w3.org/2000/svg" xmlns:xlink="http://www.w3.org/1999/xlink" x="0px" y="0px"
	 viewBox="0 0 24 24" style="enable-background:new 0 0 24 24;" xml:space="preserve">
<style type="text/css">
	.st0{fill:#FFFFFF;}
	.st1{fill:#6FBE44;}
</style>
<g>
	<polygon class="st0" points="23.2,16.2 20.2,16.2 20.2,13.1 17.2,13.1 17.2,16.2 14.1,16.2 14.1,19.2 17.2,19.2 17.2,22.2 
		20.2,22.2 20.2,19.2 23.2,19.2 	"/>
</g>
<path class="st1" d="M20.2,13.1v3h3v3h-3v3h-3v-3h-3v-3h3v-3H20.2"/>
<g>
	<path class="st0" d="M12.6,18H7.3v-6.8h2.3v2.3c0,0.4,0.3,0.8,0.8,0.8h3c0.4,0,0.8-0.3,0.8-0.8v-2.3h2.3v0.4h0.7H18v-0.4h3v0.4h0.7
		v1.5v1.5h0.8V8.9c0-2.9-2.4-5.3-5.3-5.3H6.6c-2.9,0-5.3,2.4-5.3,5.3V18c0,0.8,0.7,1.5,1.5,1.5h9.8v-0.3V18z M18,5.2
		c1.8,0.4,3,1.9,3,3.7v0.8h-3V5.2z M12.6,12.7h-1.5v-3h1.5V12.7z M7.3,5.1h9.1v4.6h-2.3V8.9c0-0.4-0.3-0.8-0.8-0.8h-3
		c-0.4,0-0.8,0.3-0.8,0.8v0.8H7.3V5.1z M5.8,18h-3v-6.8h3V18z M5.8,9.6h-3V8.9c0-1.8,1.3-3.4,3-3.7V9.6z"/>
</g>
</svg>
