<?xml version="1.0" encoding="utf-8"?>
<!-- Generator: Adobe Illustrator 22.0.0, SVG Export Plug-In . SVG Version: 6.00 Build 0)  -->
<svg version="1.1" id="Layer_1" xmlns="http://www.w3.org/2000/svg" xmlns:xlink="http://www.w3.org/1999/xlink" x="0px" y="0px"
	 viewBox="0 0 24 24" style="enable-background:new 0 0 24 24;" xml:space="preserve">
<style type="text/css">
	.st0{fill:#FFFFFF;}
</style>
<g>
	<path class="st0" d="M20.9,14.5c0.8-1.3,1.3-2.9,1.3-4.5c0-4.6-3.7-8.3-8.3-8.3c-1.6,0-3.2,0.5-4.5,1.3c-0.9,0-1.7,0.2-2.5,0.4
		c1.8-1.9,4.3-3,7-3c5.3,0,9.6,4.3,9.6,9.6c0,2.6-1.1,5.2-3,7C20.7,16.3,20.9,15.4,20.9,14.5"/>
	<path class="st0" d="M22.2,14.9c-0.5,0.8-1,1.5-1.7,2.1c0.2-0.8,0.4-1.7,0.4-2.5c0.8-1.3,1.3-2.9,1.3-4.5c0-4.6-3.7-8.3-8.3-8.3
		c-1.6,0-3.2,0.5-4.5,1.3c-0.9,0-1.7,0.2-2.5,0.4c0.6-0.7,1.3-1.2,2.1-1.7c1.5-0.9,3.1-1.3,4.9-1.3c5.3,0,9.6,4.3,9.6,9.6
		c0,0.1,0,0.2,0,0.3C23.5,12,23,13.6,22.2,14.9"/>
	<path class="st0" d="M19.7,13.9c0,5.3-4.3,9.6-9.6,9.6s-9.6-4.3-9.6-9.6s4.3-9.6,9.6-9.6S19.7,8.6,19.7,13.9 M9.4,10.7
		c-0.7,0-1.3,0.6-1.3,1.3c0,0.7,0.6,1.3,1.3,1.3V10.7z M10.7,9.4V8.8H9.4v0.6C8,9.4,6.9,10.6,6.9,12s1.1,2.6,2.6,2.6v2.6
		c-0.6,0-1-0.4-1.2-0.9c-0.1-0.3-0.5-0.5-0.8-0.4C7.1,16,6.9,16.3,7,16.7c0,0,0,0,0,0c0.4,1,1.3,1.7,2.4,1.7V19h1.3v-0.6
		c1.4,0,2.6-1.1,2.6-2.6c0-1.4-1.1-2.6-2.6-2.6v-2.6c0.6,0,1,0.4,1.2,0.9c0.1,0.3,0.5,0.5,0.8,0.4c0.3-0.1,0.5-0.5,0.4-0.8
		c0,0,0,0,0,0C12.8,10.1,11.8,9.4,10.7,9.4 M10.7,14.6v2.6c0.7,0,1.3-0.6,1.3-1.3C12,15.1,11.4,14.6,10.7,14.6"/>
</g>
</svg>
