<?xml version="1.0" encoding="utf-8"?>
<!-- Generator: Adobe Illustrator 22.0.0, SVG Export Plug-In . SVG Version: 6.00 Build 0)  -->
<svg version="1.1" id="Layer_1" xmlns="http://www.w3.org/2000/svg" xmlns:xlink="http://www.w3.org/1999/xlink" x="0px" y="0px"
	 viewBox="0 0 24 24" style="enable-background:new 0 0 24 24;" xml:space="preserve">
<style type="text/css">
	.st0{fill:#FFFFFF;}
	.st1{fill:#71BF44;}
</style>
<g>
	<path class="st0" d="M22.5,9.2c0-4.6-3.7-8.3-8.3-8.3c-3.4,0-6.3,2-7.6,4.9C3.6,7,1.5,10,1.5,13.4c0,4.6,3.7,8.3,8.3,8.3
		c3.4,0,6.3-2,7.6-4.9C20.4,15.6,22.5,12.6,22.5,9.2z M9.8,19.6c-3.4,0-6.1-2.7-6.1-6.1c0-3.4,2.7-6.1,6.1-6.1
		c3.4,0,6.1,2.7,6.1,6.1C15.9,16.8,13.2,19.6,9.8,19.6z M18.1,13.8c0-0.1,0-0.2,0-0.4c0-4.6-3.7-8.3-8.3-8.3c-0.1,0-0.1,0-0.2,0
		c1.1-1.3,2.7-2.1,4.5-2.1c3.4,0,6.1,2.7,6.1,6.1C20.3,11,19.4,12.7,18.1,13.8z"/>
	<path class="st0" d="M10.8,8.9H8.9v0.9c-0.6,0-1.2,0.2-1.7,0.7c-0.4,0.4-0.7,1-0.7,1.6c0,0.6,0.2,1.2,0.6,1.7
		c0.4,0.5,1,0.7,1.6,0.8l0.2,0h1.9l0.1,0c0.1,0,0.2,0.1,0.3,0.2c0.1,0.1,0.1,0.2,0.1,0.3s0,0.2-0.1,0.3c-0.1,0.1-0.2,0.1-0.3,0.2
		l-0.1,0H7v1.9h1.9v0.9h1.9v-0.9c0.6,0,1.2-0.2,1.7-0.7c0.4-0.4,0.7-1,0.7-1.6c0-0.6-0.2-1.2-0.6-1.7c-0.4-0.5-1-0.7-1.6-0.8l-0.2,0
		H8.9l-0.1,0c-0.1,0-0.2-0.1-0.3-0.2c-0.1-0.1-0.1-0.2-0.1-0.3c0-0.1,0-0.2,0.1-0.3c0.1-0.1,0.2-0.1,0.3-0.2l0.1,0h3.8V9.9h-1.9V8.9
		z"/>
</g>
<path class="st1" d="M18.6,12.9v3h3v3h-3v3h-3v-3h-3v-3h3v-3H18.6"/>
</svg>
