<?xml version="1.0" encoding="utf-8"?>
<!-- Generator: Adobe Illustrator 22.0.0, SVG Export Plug-In . SVG Version: 6.00 Build 0)  -->
<svg version="1.1" id="Layer_1" xmlns="http://www.w3.org/2000/svg" xmlns:xlink="http://www.w3.org/1999/xlink" x="0px" y="0px"
	 viewBox="0 0 16 16" style="enable-background:new 0 0 16 16;" xml:space="preserve">
<style type="text/css">
	.st0{fill:#FFFFFF;}
</style>
<path class="st0" d="M8,0.9697c-0.401,0-0.7273,0.3262-0.7273,0.7273V14.303c0,0.4006,0.3262,0.7273,0.7273,0.7273
	c0.4006,0,0.7273-0.3267,0.7273-0.7273V1.697C8.7273,1.2959,8.4006,0.9697,8,0.9697z"/>
<path class="st0" d="M6.0905,7.4854L4.1511,5.5459c-0.2841-0.2841-0.7453-0.2841-1.0294,0c-0.2836,0.2836-0.2836,0.7458,0,1.0294
	l0.6979,0.6974H0.7273C0.3262,7.2727,0,7.5989,0,8s0.3262,0.7273,0.7273,0.7273h3.0923L3.1217,9.4247
	c-0.2836,0.2836-0.2836,0.7457,0,1.0294c0.2841,0.2841,0.7452,0.2841,1.0294,0l1.9394-1.9395C6.2324,8.3732,6.3034,8.1866,6.3033,8
	C6.3034,7.8134,6.2324,7.6268,6.0905,7.4854z"/>
<path class="st0" d="M9.9095,8.5146l1.9394,1.9395c0.2841,0.2841,0.7453,0.2841,1.0294,0c0.2836-0.2836,0.2836-0.7458,0-1.0294
	l-0.6979-0.6974h3.0923C15.6738,8.7273,16,8.4011,16,8s-0.3262-0.7273-0.7273-0.7273h-3.0923l0.6979-0.6974
	c0.2836-0.2836,0.2836-0.7457,0-1.0294c-0.2841-0.2841-0.7452-0.2841-1.0294,0L9.9095,7.4854C9.7676,7.6268,9.6966,7.8134,9.6967,8
	C9.6966,8.1866,9.7676,8.3732,9.9095,8.5146z"/>
</svg>
