<?xml version="1.0" encoding="utf-8"?>
<!-- Generator: Adobe Illustrator 22.0.0, SVG Export Plug-In . SVG Version: 6.00 Build 0)  -->
<svg version="1.1" id="Layer_1" xmlns="http://www.w3.org/2000/svg" xmlns:xlink="http://www.w3.org/1999/xlink" x="0px" y="0px"
	 viewBox="0 0 16 16" style="enable-background:new 0 0 16 16;" xml:space="preserve">
<style type="text/css">
	.st0{fill:#FFFFFF;}
</style>
<path class="st0" d="M2,15.5c-0.5523,0-1-0.4477-1-1v-13c0-0.5523,0.4477-1,1-1c0.5523,0,1,0.4477,1,1v13
	C3,15.0523,2.5523,15.5,2,15.5"/>
<path class="st0" d="M7.4149,9l2.294,2.292c0.391,0.391,0.391,1.025,0,1.416s-1.025,0.391-1.416,0l-4-4
	c-0.391-0.39-0.3918-1.0232-0.0018-1.4142C4.2917,7.2932,4.2923,7.2926,4.2929,7.292l4-4c0.391-0.391,1.025-0.391,1.416,0
	s0.391,1.025,0,1.416l0,0L7.4149,7h7.586c0.5523,0,1,0.4477,1,1c0,0.5523-0.4477,1-1,1H7.4149z"/>
</svg>
