<?xml version="1.0" encoding="utf-8"?>
<!-- Generator: Adobe Illustrator 22.0.0, SVG Export Plug-In . SVG Version: 6.00 Build 0)  -->
<svg version="1.1" id="Layer_1" xmlns="http://www.w3.org/2000/svg" xmlns:xlink="http://www.w3.org/1999/xlink" x="0px" y="0px"
	 viewBox="0 0 16 16" style="enable-background:new 0 0 16 16;" xml:space="preserve">
<style type="text/css">
	.st0{fill:#FFFFFF;}
</style>
<path class="st0" d="M14.0009,15.5c-0.5523,0-1-0.4477-1-1v-13c0-0.5523,0.4477-1,1-1c0.5523,0,1,0.4477,1,1v13
	C15.0009,15.0523,14.5532,15.5,14.0009,15.5"/>
<path class="st0" d="M1,9C0.4477,9,0,8.5523,0,8c0-0.5523,0.4477-1,1-1h7.586L6.292,4.708l0,0c-0.391-0.391-0.391-1.025,0-1.416
	s1.025-0.391,1.416,0l4,4c0.0006,0.0006,0.0012,0.0012,0.0018,0.0018c0.39,0.391,0.3892,1.0242-0.0018,1.4142l-4,4
	c-0.391,0.391-1.025,0.391-1.416,0s-0.391-1.025,0-1.416L8.586,9H1z"/>
</svg>
