<?xml version="1.0" encoding="utf-8"?>
<!-- Generator: Adobe Illustrator 22.0.0, SVG Export Plug-In . SVG Version: 6.00 Build 0)  -->
<svg version="1.1" id="Layer_1" xmlns="http://www.w3.org/2000/svg" xmlns:xlink="http://www.w3.org/1999/xlink" x="0px" y="0px"
	 viewBox="0 0 16 16" style="enable-background:new 0 0 16 16;" xml:space="preserve">
<style type="text/css">
	.st0{fill:#FFFFFF;}
</style>
<path class="st0" d="M14.7094,1.2479H1.2906C0.5778,1.2479,0,1.8257,0,2.5385v8.4188c0,0.7128,0.5778,1.2906,1.2906,1.2906H5
	l3,3.3354l3-3.3354h3.7094C15.4222,12.2479,16,11.67,16,10.9573V2.5385C16,1.8257,15.4222,1.2479,14.7094,1.2479z M4,8.3333
	c-0.6904,0-1.25-0.5596-1.25-1.25c0-0.6903,0.5596-1.25,1.25-1.25s1.25,0.5597,1.25,1.25C5.25,7.7737,4.6904,8.3333,4,8.3333z
	 M8,8.3333c-0.6904,0-1.25-0.5596-1.25-1.25c0-0.6903,0.5596-1.25,1.25-1.25s1.25,0.5597,1.25,1.25
	C9.25,7.7737,8.6904,8.3333,8,8.3333z M12,8.3333c-0.6904,0-1.25-0.5596-1.25-1.25c0-0.6903,0.5596-1.25,1.25-1.25
	s1.25,0.5597,1.25,1.25C13.25,7.7737,12.6904,8.3333,12,8.3333z"/>
</svg>
