<?xml version="1.0" encoding="utf-8"?>
<!-- Generator: Adobe Illustrator 22.0.0, SVG Export Plug-In . SVG Version: 6.00 Build 0)  -->
<svg version="1.1" id="Layer_1" xmlns="http://www.w3.org/2000/svg" xmlns:xlink="http://www.w3.org/1999/xlink" x="0px" y="0px"
	 viewBox="0 0 20 20" style="enable-background:new 0 0 20 20;" xml:space="preserve">
<style type="text/css">
	.st0{fill:#FFFFFF;}
</style>
<g>
	<path class="st0" d="M12.3,11.8l-1.5-0.2v2.4c0.4,0,0.8-0.1,1.1-0.1c0.4-0.1,0.7-0.4,0.8-0.7c0-0.3,0.1-0.5,0.1-0.8
		C12.8,12.1,12.7,11.8,12.3,11.8z"/>
	<path class="st0" d="M17.4,6.1l-4.6-4.6C12.4,1.2,12,1,11.6,1H3.8C2.9,1,2.1,1.8,2.1,2.7v14.6c0,0.9,0.8,1.7,1.7,1.7h12.4
		c0.9,0,1.7-0.8,1.7-1.7v-10C17.9,6.9,17.7,6.4,17.4,6.1z M14.4,13.3c-0.2,1.2-1.1,2-2.2,2.2c-0.5,0.1-0.9,0.1-1.4,0.1v0.3
		c0,0.5-0.4,0.8-0.8,0.8s-0.8-0.4-0.8-0.8v-0.3c-1-0.1-2.1-0.2-3-0.5c-0.4-0.1-0.7-0.6-0.6-1c0.1-0.5,0.6-0.7,1-0.6
		c0.8,0.2,1.7,0.4,2.6,0.4v-2.6L7.4,11c-1-0.2-1.9-1-1.9-2.1c0-0.3,0-0.7,0.1-1c0.2-1.2,1.1-2,2.2-2.2c0.5-0.1,0.9-0.1,1.4-0.1V5.2
		c0-0.5,0.4-0.8,0.8-0.8s0.8,0.4,0.8,0.8v0.3c1,0.1,2,0.2,3,0.5c0.4,0.1,0.7,0.6,0.6,1c-0.1,0.4-0.6,0.7-1,0.6
		c-0.8-0.2-1.7-0.4-2.6-0.4v2.6l1.7,0.3c1,0.2,1.9,1,1.9,2.1C14.5,12.6,14.5,12.9,14.4,13.3z"/>
	<path class="st0" d="M7.2,8.1c0,0.3-0.1,0.5-0.1,0.8c0,0.2,0.2,0.4,0.5,0.5l1.5,0.2V7.2C8.8,7.2,8.4,7.3,8,7.3
		C7.6,7.4,7.3,7.7,7.2,8.1z"/>
</g>
</svg>
