<?xml version="1.0" encoding="utf-8"?>
<!-- Generator: Adobe Illustrator 22.0.0, SVG Export Plug-In . SVG Version: 6.00 Build 0)  -->
<svg version="1.1" id="Layer_1" xmlns="http://www.w3.org/2000/svg" xmlns:xlink="http://www.w3.org/1999/xlink" x="0px" y="0px"
	 viewBox="0 0 24 24" style="enable-background:new 0 0 24 24;" xml:space="preserve">
<style type="text/css">
	.st0{fill:#FFFFFF;}
	.st1{fill:#6FBE44;}
</style>
<path class="st0" d="M3.6,19.7c-0.4,0-0.8-0.2-1.1-0.5C2.2,18.9,2,18.5,2,18.1V5.3c0-1.4,1.2-2.6,2.6-2.6h12.6
	c1.4,0,2.6,1.2,2.6,2.6v9.4c0,1.4-1.2,2.6-2.6,2.6H6.8c-0.1,0-0.3,0.1-0.4,0.2l-1.7,1.7C4.4,19.5,4,19.7,3.6,19.7z M4.6,4.8
	C4.3,4.8,4,5,4,5.3v11.7l1-1c0.5-0.5,1.1-0.8,1.8-0.8h10.3c0.3,0,0.6-0.3,0.6-0.6V5.3c0-0.3-0.3-0.6-0.6-0.6H4.6z"/>
<path class="st1" d="M20.2,13.1v3h3v3h-3v3h-3v-3h-3v-3h3v-3H20.2"/>
</svg>
