<?xml version="1.0" encoding="utf-8"?>
<!-- Generator: Adobe Illustrator 22.0.0, SVG Export Plug-In . SVG Version: 6.00 Build 0)  -->
<svg version="1.1" id="Layer_1" xmlns="http://www.w3.org/2000/svg" xmlns:xlink="http://www.w3.org/1999/xlink" x="0px" y="0px"
	 viewBox="0 0 24 24" style="enable-background:new 0 0 24 24;" xml:space="preserve">
<style type="text/css">
	.st0{fill:#FFFFFF;}
</style>
<path class="st0" d="M18.6,18.6V21c0,0.6-0.5,1-1,1c-0.6,0-1-0.5-1-1l0,0v-2.4c0-2-1.1-3.8-2.9-4.6l-4.2-2.1c-2.5-1.2-4-3.7-4-6.5V3
	c0-0.6,0.5-1,1-1s1,0.5,1,1v2.4c0,2,1.1,3.8,2.9,4.6l4.2,2.1C17,13.3,18.6,15.8,18.6,18.6 M14.1,18.6H7.5c0-0.5,0.1-0.9,0.2-1.4h4.8
	c0.6,0,1-0.5,1-1c0-0.6-0.5-1-1-1H8.9C9,15,9,14.9,9.1,14.8c0.4-0.4,0.4-1,0-1.5c-0.4-0.4-1-0.4-1.5,0l0,0c-1.5,1.4-2.3,3.3-2.3,5.3
	V21c0,0.6,0.5,1,1,1s1-0.5,1-1l0,0v-0.3h6.6c0.6,0,1-0.5,1-1C15.1,19,14.6,18.6,14.1,18.6 M17.5,2c-0.6,0-1,0.5-1,1v0.3H9.9
	c-0.6,0-1,0.5-1,1s0.5,1,1,1h6.6c0,0.5-0.1,0.9-0.2,1.4h-4.8c-0.6,0-1,0.5-1,1s0.5,1,1,1h3.7C15,9,15,9.1,14.9,9.2
	c-0.4,0.4-0.4,1,0,1.5c0.4,0.4,1,0.4,1.5,0l0,0c1.5-1.4,2.3-3.3,2.3-5.3V3C18.6,2.5,18.1,2,17.5,2"/>
</svg>
