<?xml version="1.0" encoding="utf-8"?>
<!-- Generator: Adobe Illustrator 22.0.0, SVG Export Plug-In . SVG Version: 6.00 Build 0)  -->
<svg version="1.1" id="Layer_1" xmlns="http://www.w3.org/2000/svg" xmlns:xlink="http://www.w3.org/1999/xlink" x="0px" y="0px"
	 viewBox="0 0 24 24" style="enable-background:new 0 0 24 24;" xml:space="preserve">
<style type="text/css">
	.st0{fill:#FFFFFF;}
</style>
<path class="st0" d="M22.94,19.94v2.16c0,0.54-0.45,0.9-0.9,0.9c-0.54,0-0.9-0.45-0.9-0.9l0,0v-2.16c0-1.8-0.99-3.42-2.61-4.14
	l-3.78-1.89c-2.25-1.08-3.6-3.33-3.6-5.85V5.9c0-0.54,0.45-0.9,0.9-0.9s0.9,0.45,0.9,0.9v2.16c0,1.8,0.99,3.42,2.61,4.14l3.78,1.89
	C21.5,15.17,22.94,17.42,22.94,19.94 M18.89,19.94h-5.94c0-0.45,0.09-0.81,0.18-1.26h4.32c0.54,0,0.9-0.45,0.9-0.9
	c0-0.54-0.45-0.9-0.9-0.9h-3.24c0.09-0.18,0.09-0.27,0.18-0.36c0.36-0.36,0.36-0.9,0-1.35c-0.36-0.36-0.9-0.36-1.35,0l0,0
	c-1.35,1.26-2.07,2.97-2.07,4.77v2.16c0,0.54,0.45,0.9,0.9,0.9s0.9-0.45,0.9-0.9l0,0v-0.27h5.94c0.54,0,0.9-0.45,0.9-0.9
	C19.79,20.3,19.34,19.94,18.89,19.94 M21.95,5c-0.54,0-0.9,0.45-0.9,0.9v0.27h-5.94c-0.54,0-0.9,0.45-0.9,0.9
	c0,0.45,0.45,0.9,0.9,0.9h5.94c0,0.45-0.09,0.81-0.18,1.26h-4.32c-0.54,0-0.9,0.45-0.9,0.9c0,0.45,0.45,0.9,0.9,0.9h3.33
	c-0.18,0.27-0.18,0.36-0.27,0.45c-0.36,0.36-0.36,0.9,0,1.35c0.36,0.36,0.9,0.36,1.35,0l0,0c1.35-1.26,2.07-2.97,2.07-4.77V5.9
	C22.94,5.45,22.49,5,21.95,5"/>
<g>
	<path class="st0" d="M3.1909,4.1012L3.1728,8.2819c0,0.2654-0.0965,0.501-0.2896,0.7066c-0.193,0.2056-0.4344,0.3079-0.7239,0.3069
		c-0.2654,0-0.5007-0.1026-0.7058-0.3077C1.2483,8.7826,1.1458,8.5474,1.1458,8.2819l0-6.6601c0-0.2896,0.0965-0.5309,0.2896-0.7239
		s0.4344-0.2896,0.7239-0.2896l6.6601,0c0.2654,0,0.501,0.0965,0.7066,0.2896c0.2056,0.193,0.3079,0.4344,0.3069,0.7239
		c0,0.2654-0.1026,0.5007-0.3077,0.7058C9.3201,2.5327,9.0848,2.6353,8.8194,2.6353L4.6387,2.6534l4.4299,4.4299
		c0.2051,0.2051,0.3077,0.4467,0.3077,0.7247c0,0.278-0.1026,0.5191-0.3077,0.7232C8.8635,8.7362,8.622,8.8388,8.344,8.8388
		c-0.278,0-0.5191-0.1026-0.7232-0.3077L3.1909,4.1012z"/>
</g>
</svg>
