<?xml version="1.0" encoding="utf-8"?>
<!-- Generator: Adobe Illustrator 22.0.0, SVG Export Plug-In . SVG Version: 6.00 Build 0)  -->
<svg version="1.1" id="Layer_1" xmlns="http://www.w3.org/2000/svg" xmlns:xlink="http://www.w3.org/1999/xlink" x="0px" y="0px"
	 viewBox="0 0 24 24" style="enable-background:new 0 0 24 24;" xml:space="preserve">
<style type="text/css">
	.st0{fill:#FFFFFF;}
	.st1{fill:#6FBE44;}
</style>
<g>
	<path class="st0" d="M17.7,19.5v2.7c0,0.4-0.4,0.8-0.8,0.8s-0.8-0.4-0.8-0.8v-2.7c0-2.4-1.3-4.6-3.5-5.6l-4.8-2.4
		c-2.7-1.3-4.4-4-4.3-7V1.8C3.6,1.4,3.9,1,4.4,1c0.4,0,0.8,0.4,0.8,0.8v2.7c0,2.4,1.3,4.6,3.5,5.6l4.8,2.4
		C16,13.8,17.7,16.5,17.7,19.5 M13.8,19.1H5.2c0-0.5,0.1-1.1,0.3-1.6h7.1c0.4,0,0.8-0.4,0.8-0.8c0-0.4-0.4-0.8-0.8-0.8H6.3
		c0.4-0.6,0.9-1.1,1.4-1.5c0.4-0.3,0.4-0.7,0.2-1.1c-0.3-0.4-0.7-0.4-1.1-0.2l0,0c-2,1.5-3.2,3.8-3.2,6.3v2.7c0,0.4,0.4,0.8,0.8,0.8
		c0.4,0,0.8-0.4,0.8-0.8v-1.6h8.6c0.4,0,0.8-0.4,0.8-0.8C14.6,19.4,14.2,19.1,13.8,19.1 M16.9,1c-0.4,0-0.8,0.4-0.8,0.8v1.6H7.5
		c-0.4,0-0.8,0.4-0.8,0.8s0.4,0.8,0.8,0.8h8.6c0,0.5-0.1,1.1-0.3,1.6H8.7c-0.4,0-0.8,0.4-0.8,0.8c0,0.4,0.4,0.8,0.8,0.8H15
		c-0.4,0.6-0.9,1.1-1.4,1.5c-0.3,0.3-0.4,0.7-0.2,1.1c0.3,0.3,0.7,0.4,1.1,0.2c2-1.5,3.2-3.8,3.2-6.3V1.8C17.7,1.4,17.4,1,16.9,1"/>
	<path class="st1" d="M18.6,12.9v3h3v3h-3v3h-3v-3h-3v-3h3v-3H18.6"/>
</g>
</svg>
