<?xml version="1.0" encoding="utf-8"?>
<!-- Generator: Adobe Illustrator 22.0.0, SVG Export Plug-In . SVG Version: 6.00 Build 0)  -->
<svg version="1.1" id="Layer_1" xmlns="http://www.w3.org/2000/svg" xmlns:xlink="http://www.w3.org/1999/xlink" x="0px" y="0px"
	 viewBox="0 0 24 24" style="enable-background:new 0 0 24 24;" xml:space="preserve">
<style type="text/css">
	.st0{fill:#FFFFFF;}
</style>
<path class="st0" d="M19,0H2v24h20V3L19,0z M14.9,19.7c0,0.5-0.4,1-1,1H7.3V21c0,0.5-0.5,1-1,1s-1-0.4-1-1v-2.4c0-2,0.8-3.9,2.3-5.3
	c0.5-0.4,1.1-0.4,1.5,0c0.4,0.5,0.4,1.1,0,1.5C9,14.9,9,15,8.9,15.2h3.6c0.5,0,1,0.4,1,1c0,0.5-0.4,1-1,1H7.7
	c-0.1,0.5-0.2,0.9-0.2,1.4h6.6C14.6,18.6,15.1,19,14.9,19.7z M18.6,21c0,0.6-0.5,1-1,1c-0.6,0-1-0.5-1-1v-2.4c0-2-1.1-3.8-2.9-4.6
	l-4.2-2.1c-2.5-1.2-4-3.7-4-6.5V3c0-0.6,0.5-1,1-1s1,0.5,1,1v2.4c0,2,1.1,3.8,2.9,4.6l4.2,2.1c2.4,1.2,4,3.7,4,6.5V21z M18.7,5.4
	c0,2-0.8,3.9-2.3,5.3c-0.5,0.4-1.1,0.4-1.5,0c-0.4-0.5-0.4-1.1,0-1.5C15,9.1,15,9,15.2,8.7h-3.7c-0.5,0-1-0.5-1-1s0.4-1,1-1h4.8
	c0.1-0.5,0.2-0.9,0.2-1.4H9.9c-0.5,0-1-0.5-1-1s0.4-1,1-1h6.6V3c0-0.5,0.4-1,1-1s1.1,0.5,1.2,1V5.4z"/>
</svg>
