<?xml version="1.0" encoding="utf-8"?>
<!-- Generator: Adobe Illustrator 22.0.0, SVG Export Plug-In . SVG Version: 6.00 Build 0)  -->
<svg version="1.1" id="Layer_1" xmlns="http://www.w3.org/2000/svg" xmlns:xlink="http://www.w3.org/1999/xlink" x="0px" y="0px"
	 viewBox="0 0 32 32" style="enable-background:new 0 0 32 32;" xml:space="preserve">
<style type="text/css">
	.st0{fill:#FF4D52;}
</style>
<path class="st0" d="M16,1C7.7,1,1,7.7,1,16s6.7,15,15,15s15-6.7,15-15S24.3,1,16,1z M22.4,20C22.5,20,22.5,20,22.4,20
	c0.7,0.8,0.7,1.9,0,2.5c-0.7,0.7-1.8,0.6-2.5-0.1l-4-4l-4,4c0,0-0.1,0.1-0.1,0.1c-0.7,0.7-1.8,0.6-2.5-0.1c-0.7-0.7-0.6-1.8,0.1-2.5
	l4-4l-4-4c0,0-0.1-0.1-0.1-0.1c-0.7-0.7-0.6-1.8,0.1-2.5c0.7-0.7,1.8-0.6,2.5,0.1l4,4l4-4c0,0,0.1-0.1,0.1-0.1
	c0.7-0.7,1.8-0.6,2.5,0.1c0.7,0.7,0.6,1.8-0.1,2.5l-4,4L22.4,20z"/>
</svg>
