<?xml version="1.0" encoding="utf-8"?>
<!-- Generator: Adobe Illustrator 22.0.0, SVG Export Plug-In . SVG Version: 6.00 Build 0)  -->
<svg version="1.1" id="Layer_1" xmlns="http://www.w3.org/2000/svg" xmlns:xlink="http://www.w3.org/1999/xlink" x="0px" y="0px"
	 viewBox="0 0 16 16" style="enable-background:new 0 0 16 16;" xml:space="preserve">
<style type="text/css">
	.st0{fill:#FFFFFF;}
</style>
<path class="st0" d="M2,15.5c-0.5523,0-1-0.4477-1-1v-13c0-0.5523,0.4477-1,1-1c0.5523,0,1,0.4477,1,1v13
	C3,15.0523,2.5523,15.5,2,15.5"/>
<path class="st0" d="M12.5851,7l-2.294-2.292c-0.391-0.391-0.391-1.025,0-1.416s1.025-0.391,1.416,0l4,4
	c0.391,0.39,0.3918,1.0232,0.0018,1.4142c-0.0006,0.0006-0.0012,0.0012-0.0018,0.0018l-4,4c-0.391,0.391-1.025,0.391-1.416,0
	s-0.391-1.025,0-1.416l0,0L12.5851,9h-7.586c-0.5523,0-1-0.4477-1-1c0-0.5523,0.4477-1,1-1H12.5851z"/>
</svg>
