<?xml version="1.0" encoding="utf-8"?>
<!-- Generator: Adobe Illustrator 22.0.0, SVG Export Plug-In . SVG Version: 6.00 Build 0)  -->
<svg version="1.1" id="Layer_1" xmlns="http://www.w3.org/2000/svg" xmlns:xlink="http://www.w3.org/1999/xlink" x="0px" y="0px"
	 viewBox="0 0 24 24" style="enable-background:new 0 0 24 24;" xml:space="preserve">
<style type="text/css">
	.st0{fill:#FFFFFF;}
</style>
<g>
	<path class="st0" d="M20.7,7.2c-0.1-0.1-0.1-0.2-0.2-0.3l-5.6-5.6c-0.1-0.1-0.2-0.2-0.3-0.2C14.5,1,14.4,1,14.2,1H6.4
		C4.7,1,3.2,2.4,3.2,4.2v15.6c0,1.8,1.4,3.2,3.2,3.2h11.1c1.8,0,3.2-1.4,3.2-3.2V7.6C20.8,7.4,20.8,7.3,20.7,7.2z M15.2,4.4l2.1,2.1
		h-2c-0.1,0-0.1,0-0.1-0.1V4.4z M17.6,21H6.4c-0.7,0-1.2-0.5-1.2-1.2V4.2C5.2,3.5,5.8,3,6.4,3h6.8v3.4c0,1.2,0.9,2.1,2.1,2.1h3.4
		v11.2C18.8,20.5,18.2,21,17.6,21z"/>
	<path class="st0" d="M16.3,15c-0.1-0.1-0.1-0.2-0.2-0.3l-2.8-2.8c-0.4-0.4-1-0.4-1.4,0s-0.4,1,0,1.4l1.1,1.1H8.7c-0.6,0-1,0.4-1,1
		s0.4,1,1,1h4.3l-1.1,1.1c-0.4,0.4-0.4,1,0,1.4c0.2,0.2,0.5,0.3,0.7,0.3s0.5-0.1,0.7-0.3L16,16c0.1-0.1,0.2-0.2,0.2-0.3
		C16.4,15.5,16.4,15.2,16.3,15z"/>
</g>
</svg>
