<?xml version="1.0" encoding="utf-8"?>
<!-- Generator: Adobe Illustrator 22.0.0, SVG Export Plug-In . SVG Version: 6.00 Build 0)  -->
<svg version="1.1" id="svg1" xmlns:svg="http://www.w3.org/2000/svg"
	 xmlns="http://www.w3.org/2000/svg" xmlns:xlink="http://www.w3.org/1999/xlink" x="0px" y="0px" viewBox="0 0 16 16"
	 style="enable-background:new 0 0 16 16;" xml:space="preserve">
<style type="text/css">
	.st0{fill:#FF5F5F;}
	.st1{fill:#FFFFFF;}
</style>
<g>
	<path id="path3_3_" class="st0" d="M13.4,12l1.4-1.4l-1.4-1.4L12,10.6l-1.4-1.4l-1.4,1.4l1.4,1.4l-1.4,1.4l1.4,1.4l1.4-1.4l1.4,1.4
		l1.4-1.4L13.4,12z"/>
</g>
<g>
	<polygon class="st1" points="14.8,12 15,12.2 15,11.8 	"/>
	<path class="st1" d="M7.8,13.4l0.7-0.7L9.2,12l-0.7-0.7l-0.7-0.7l0.7-0.7l1.4-1.4l0.7-0.7l0.7,0.7L12,9.2l0.7-0.7l0.7-0.7l0.7,0.7
		L15,9.3V6c0-0.6-0.4-1-1-1h-4C9.4,5,9,4.6,9,4V3c0-0.6-0.4-1-1-1H2C1.4,2,1,2.4,1,3v10c0,0.6,0.4,1,1,1h6.3L7.8,13.4z"/>
</g>
</svg>
