<?xml version="1.0" encoding="UTF-8" standalone="no"?>
<svg
   width="16"
   height="16"
   version="1.1"
   id="svg1"
   xmlns="http://www.w3.org/2000/svg"
   xmlns:svg="http://www.w3.org/2000/svg">
  <defs
     id="defs1" />
  <path
     fill="#8eef97"
     d="M 3,1 C 1.892,1 1,1.892 1,3 v 10 c 0,1.108 0.892,2 2,2 h 10 c 1.108,0 2,-0.892 2,-2 V 3 C 15,1.892 14.108,1 13,1 Z m 1.25,2 h 6.5 C 11.442,3 12,3.558 12,4.25 V 5 c -1.645,0 -3,1.355 -3,3 0,1.645 1.355,3 3,3 v 0.75 C 12,12.442 11.442,13 10.75,13 H 4.25 C 3.558,13 3,12.442 3,11.75 V 4.25 C 3,3.558 3.558,3 4.25,3 Z M 12,6 a 2,2 0 1 1 0,4 2,2 0 0 1 0,-4 z"
     id="path1"
     style="fill:#ffffff" />
</svg>
