<?xml version="1.0" encoding="utf-8"?>
<!-- Generator: Adobe Illustrator 22.0.0, SVG Export Plug-In . SVG Version: 6.00 Build 0)  -->
<svg version="1.1" id="Layer_1" xmlns="http://www.w3.org/2000/svg" xmlns:xlink="http://www.w3.org/1999/xlink" x="0px" y="0px"
	 viewBox="0 0 20 20" style="enable-background:new 0 0 20 20;" xml:space="preserve">
<style type="text/css">
	.st0{fill:#FFFFFF;}
</style>
<path class="st0" d="M4.3,5.5c-0.4,0-0.8,0.3-0.8,0.8v8.5c0,0.4,0.3,0.8,0.8,0.8h8.5c0.4,0,0.8-0.3,0.8-0.8v-4
	c0-0.4,0.3-0.8,0.8-0.8s0.8,0.3,0.8,0.8v4c0,1.2-1,2.3-2.3,2.3H4.3C3,17,2,16,2,14.8V6.3C2,5,3,4,4.3,4h5C9.7,4,10,4.3,10,4.8
	S9.7,5.5,9.3,5.5H4.3z"/>
<path class="st0" d="M6.2,12.8c0.3,0.3,0.8,0.3,1.1,0.1c0,0,0,0,0,0l9.2-8.4v2.8c0,0.4,0.3,0.8,0.8,0.8S18,7.7,18,7.3l0,0V2.8
	C18,2.3,17.7,2,17.3,2h-4.5C12.3,2,12,2.3,12,2.8s0.3,0.8,0.8,0.8h2.6l-9.1,8.2C5.9,12,5.9,12.4,6.2,12.8
	C6.2,12.8,6.2,12.8,6.2,12.8L6.2,12.8z"/>
</svg>
