<?xml version="1.0" encoding="utf-8"?>
<!-- Generator: Adobe Illustrator 22.0.0, SVG Export Plug-In . SVG Version: 6.00 Build 0)  -->
<svg version="1.1" id="Layer_1" xmlns="http://www.w3.org/2000/svg" xmlns:xlink="http://www.w3.org/1999/xlink" x="0px" y="0px"
	 viewBox="0 0 24 24" style="enable-background:new 0 0 24 24;" xml:space="preserve">
<style type="text/css">
	.st0{fill:#FFFFFF;}
</style>
<g>
	<path class="st0" d="M11,10.1H5.6c-0.7,0-1.3,0.4-1.7,1l-2.7,4.7c-0.3,0.6-0.3,1.3,0,1.9l2.7,4.7c0.3,0.6,1,1,1.7,1H11
		c0.7,0,1.3-0.4,1.7-1l2.7-4.7c0.3-0.6,0.3-1.3,0-1.9L12.7,11C12.4,10.4,11.7,10.1,11,10.1z"/>
	<path class="st0" d="M16.6,0.6h-3.4c-0.4,0-0.8,0.2-1,0.6l-1.7,2.9c-0.2,0.4-0.2,0.8,0,1.2l1.7,2.9c0.2,0.4,0.6,0.6,1,0.6h3.4
		c0.4,0,0.8-0.2,1-0.6l1.7-2.9c0.2-0.4,0.2-0.8,0-1.2l-1.7-2.9C17.4,0.8,17.1,0.6,16.6,0.6z"/>
	<path class="st0" d="M21.1,10.1H19c-0.3,0-0.6,0.2-0.8,0.5l-1.1,1.8c-0.2,0.3-0.2,0.6,0,0.9l1.1,1.8c0.2,0.3,0.5,0.5,0.8,0.5h2.1
		c0.3,0,0.6-0.2,0.8-0.5l1.1-1.8c0.2-0.3,0.2-0.6,0-0.9l-1.1-1.8C21.7,10.2,21.4,10.1,21.1,10.1z"/>
</g>
</svg>
