<?xml version="1.0" encoding="utf-8"?>
<!-- Generator: Adobe Illustrator 22.0.0, SVG Export Plug-In . SVG Version: 6.00 Build 0)  -->
<svg version="1.1" id="Layer_1" xmlns="http://www.w3.org/2000/svg" xmlns:xlink="http://www.w3.org/1999/xlink" x="0px" y="0px"
	 viewBox="0 0 16 16" style="enable-background:new 0 0 16 16;" xml:space="preserve">
<style type="text/css">
	.st0{fill:#FFFFFF;}
</style>
<path class="st0" d="M2,4c0-1.1,0.9-2,2-2h8c1.1,0,2,0.9,2,2s-0.9,2-2,2H4C2.9,6,2,5.1,2,4z M14,9.3c0-0.6-0.3-1-0.8-1H2.8
	C2.3,8.3,2,8.7,2,9.3s0.3,1,0.8,1h10.5C13.7,10.3,14,9.8,14,9.3z M2.8,12.3c-0.4,0-0.8,0.4-0.8,1s0.3,1,0.8,1h10.5
	c0.4,0,0.8-0.4,0.8-1s-0.3-1-0.8-1H2.8z"/>
</svg>
