<?xml version="1.0" encoding="utf-8"?>
<!-- Generator: Adobe Illustrator 22.0.0, SVG Export Plug-In . SVG Version: 6.00 Build 0)  -->
<svg version="1.1" id="Layer_1" xmlns="http://www.w3.org/2000/svg" xmlns:xlink="http://www.w3.org/1999/xlink" x="0px" y="0px"
	 viewBox="0 0 16 16" style="enable-background:new 0 0 16 16;" xml:space="preserve">
<style type="text/css">
	.st0{fill:#FFFFFF;}
</style>
<path class="st0" d="M11.6,11.2c-0.9,0-1.7,0.6-2,1.4H7.3V8.7H11c0.4,1.1,1.6,1.7,2.7,1.3c1.1-0.4,1.7-1.6,1.3-2.7
	c-0.4-1.1-1.6-1.7-2.7-1.3c-0.6,0.2-1.1,0.7-1.3,1.3H7.3V3.4h2.3c0.3,0.9,1.1,1.4,2,1.4c1.2,0,2.1-1,2.1-2.2c0-1.2-1-2.1-2.2-2.1
	c-0.9,0-1.7,0.6-2,1.4H7.3c-0.8,0-1.4,0.6-1.4,1.4v3.9H5C4.6,6.2,3.4,5.6,2.3,6C1.2,6.4,0.6,7.6,1,8.7c0.4,1.1,1.6,1.7,2.7,1.3
	C4.3,9.8,4.8,9.3,5,8.7h0.8v3.9c0,0.8,0.6,1.4,1.4,1.4h2.3c0.3,0.9,1.1,1.4,2,1.4c1.2,0,2.1-1,2.2-2.1
	C13.7,12.2,12.8,11.2,11.6,11.2z"/>
</svg>
