<?xml version="1.0" encoding="utf-8"?>
<!-- Generator: Adobe Illustrator 22.0.0, SVG Export Plug-In . SVG Version: 6.00 Build 0)  -->
<svg version="1.1" id="Layer_1" xmlns="http://www.w3.org/2000/svg" xmlns:xlink="http://www.w3.org/1999/xlink" x="0px" y="0px"
	 viewBox="0 0 16 16" style="enable-background:new 0 0 16 16;" xml:space="preserve">
<style type="text/css">
	.st0{fill:#FFFFFF;}
</style>
<path class="st0" d="M10.59,15.05h-0.43c-0.55,0-1-0.45-1-1s0.45-1,1-1h0.43c0.4,0,0.73-0.33,0.73-0.73v-1.73
	c0-1.18,0.43-2.02,1.03-2.59c-0.73-0.75-1.03-1.78-1.03-2.59V3.68c0-0.4-0.33-0.73-0.73-0.73h-0.43c-0.55,0-1-0.45-1-1s0.45-1,1-1
	h0.43c1.5,0,2.73,1.22,2.73,2.73v1.73c0,0.16,0.04,1.59,1.59,1.59c0.55,0,1,0.45,1,1s-0.45,1-1,1c-0.27,0-1.59,0.08-1.59,1.59v1.73
	C13.32,13.83,12.1,15.05,10.59,15.05z M5.84,15.05H5.41c-1.5,0-2.73-1.22-2.73-2.73v-1.73C2.68,9.04,1.25,9,1.08,9
	c-0.55,0-1-0.45-1-1s0.45-1,1-1c1.55,0,1.59-1.43,1.59-1.59V3.68c0-1.5,1.22-2.73,2.73-2.73h0.43c0.55,0,1,0.45,1,1s-0.45,1-1,1
	H5.41c-0.4,0-0.73,0.33-0.73,0.73v1.73c0,0.81-0.3,1.84-1.03,2.59c0.6,0.57,1.03,1.41,1.03,2.59v1.73c0,0.4,0.33,0.73,0.73,0.73
	h0.43c0.55,0,1,0.45,1,1S6.39,15.05,5.84,15.05z"/>
</svg>
