<?xml version="1.0" encoding="utf-8"?>
<!-- Generator: Adobe Illustrator 22.0.0, SVG Export Plug-In . SVG Version: 6.00 Build 0)  -->
<svg version="1.1" id="Layer_1" xmlns="http://www.w3.org/2000/svg" xmlns:xlink="http://www.w3.org/1999/xlink" x="0px" y="0px"
	 viewBox="0 0 24 24" style="enable-background:new 0 0 24 24;" xml:space="preserve">
<style type="text/css">
	.st0{fill:#FFFFFF;}
	.st1{fill:#6FBE44;}
</style>
<path class="st0" d="M13.5,20.5c-0.1,0-0.3,0-0.4-0.1c-0.5-0.2-0.7-0.8-0.5-1.3l4.3-9.4C17,9.3,17.4,9,17.8,9s0.7,0.2,0.9,0.6L23,19
	c0.2,0.5,0,1.1-0.5,1.3c-0.5,0.2-1.1,0-1.3-0.5l-0.9-2h-4.9l-0.9,2C14.3,20.2,13.9,20.5,13.5,20.5z M16.2,15.9h3.1l-1.6-3.4
	L16.2,15.9z M5.8,15.3c-0.4,0-0.8-0.2-0.9-0.6c-0.2-0.5,0-1.1,0.5-1.3c1.2-0.5,2.2-1.1,3.1-1.9c-0.7-0.8-1.4-1.7-1.9-2.8
	c-0.2-0.5,0-1.1,0.4-1.3c0.5-0.2,1.1,0,1.3,0.4c0.4,0.8,0.9,1.6,1.5,2.2c1-1.2,1.7-2.6,2.3-4.2H4.1c-0.6,0-1-0.4-1-1s0.4-1,1-1h5
	V2.3c0-0.6,0.4-1,1-1s1,0.4,1,1v1.6h2.4c0,0,0,0,0,0h2.5c0.6,0,1,0.4,1,1s-0.4,1-1,1h-1.8c-0.6,2.2-1.6,4.1-2.9,5.6
	c0.5,0.4,1.1,0.8,1.7,1.1c0.5,0.2,0.7,0.8,0.4,1.3c-0.2,0.5-0.8,0.7-1.3,0.4c-0.8-0.4-1.6-0.9-2.3-1.4c-1.1,0.9-2.3,1.7-3.7,2.3
	C6.1,15.3,5.9,15.3,5.8,15.3z"/>
<path class="st1" d="M8.7,13.1v3h3v3h-3v3h-3v-3h-3v-3h3v-3H8.7"/>
</svg>
