<?xml version="1.0" encoding="utf-8"?>
<!-- Generator: Adobe Illustrator 22.0.0, SVG Export Plug-In . SVG Version: 6.00 Build 0)  -->
<svg version="1.1" id="Layer_1" xmlns="http://www.w3.org/2000/svg" xmlns:xlink="http://www.w3.org/1999/xlink" x="0px" y="0px"
	 viewBox="0 0 800 800" style="enable-background:new 0 0 800 800;" xml:space="preserve">
<style type="text/css">
	.st0{fill:#F2F2F2;}
	.st1{fill:#FFFFFF;}
</style>
<g>
	<polygon class="st0" points="551.1,424 795,197.3 454.4,197.3 454.4,303.8 502.3,399.6 398.3,521.7 297.7,402.9 348.5,303.8 
		348.5,197.3 5,197.3 248.9,424 248.9,516.8 166.4,602.7 400,602.7 633.6,602.7 551.1,516.8 	"/>
</g>
<polygon class="st0" points="454.4,352.5 398.3,420.6 430.9,303.8 401.7,245.4 322.7,400 398.3,489.3 477.3,396.6 "/>
<g>
	<path class="st1" d="M69.9,667.3l2.3,0.2c6.1,0.5,7.3,1.3,7.4,1.4c0.3,0.2,1.2,1.2,1.2,5v45.5L28.9,654l-8.1,2.9v77.5
		c0,1.1-0.2,2.6-1,3.1c-0.1,0.1-1,0.5-5.1,1.2l-4.7,0.6v9.3h36.4v-9.3l-2.1-0.3c-0.5-0.1-2-0.3-4.5-0.7c-2.7-0.4-3.8-1-4.2-1.2
		c-0.8-0.6-1.2-2.2-1.2-4.5v-46.7l52.2,65.7l7.8-2.3v-75.7c0-3.9,0.9-4.7,1.1-4.9c0.5-0.3,1.2-0.6,2.1-0.7c1.3-0.2,2.9-0.4,4.8-0.6
		l2.2-0.3v-9.5H69.9V667.3z"/>
	<path class="st1" d="M160.7,732.6c-3.7,3.2-9.2,4.8-16.5,4.8c-10.5,0-16.3-5.7-18-18c13.6-0.4,24-3.2,31.1-8.2
		c6.8-4.8,10.3-10.9,10.3-18c0-5.7-2.2-10.3-6.7-13.6c-4.4-3.3-10.5-5-18.1-5c-10,0-18.2,3.7-24.6,11c-6.3,7.3-9.5,16.5-9.5,27.5
		c0,10.7,2.9,19.5,8.6,26.1c6,6.9,14.5,10.5,25.1,10.5c11,0,19.4-3.5,25-10.4l1.4-1.7l-6.4-6.4L160.7,732.6z M141.9,685.7
		c1.8,0,3.3,0.3,4.4,0.7c2.8,1.2,4.1,3.4,4.1,6.7c0,2.8-0.7,5-2.1,6.8c-3.9,5-11.5,7.8-22.5,8.4c0.3-3.3,0.9-6.6,1.9-9.7
		c0.6-1.9,1.4-3.7,2.3-5.3s1.9-3,3.1-4.1c1.1-1.1,2.4-2,3.8-2.6C138.5,686,140.1,685.7,141.9,685.7z"/>
	<path class="st1" d="M242.8,737.8c-0.1-0.2-0.7-1.2-1.4-4.4c-2.3-8.7-7.9-16.2-16.8-22.3c4-2.8,7.4-5.9,10.2-9.4
		c2-2.6,3.9-6.1,5.4-10.6l0.4-1.2c0.3-0.9,0.6-1.8,0.9-2.4c0.2-0.3,0.5-0.7,1-1.1c0.1-0.1,1-0.6,5.1-1l2.2-0.3v-9.3h-31.4v9.4
		l2.3,0.2c3.3,0.3,4.6,0.7,5.1,0.9c0,0.2,0.1,0.4,0.1,0.8c0,0.9-0.4,2.9-2.8,6.9c-2.4,4-5.7,7.4-9.9,10.1c-3.4-2.7-6.2-6.1-8.3-10
		c-0.9-1.7-1.6-3.3-1.9-4.6c-0.5-1.9-0.5-2.4-0.5-2.5c0-0.3,0-0.6,0-0.9c0,0,0.1,0,0.1-0.1c0.2-0.1,1.4-0.5,5.6-0.8l2.3-0.2v-9.4
		H176v9.4l2.2,0.2c4.5,0.5,5.5,1.1,5.6,1.1c0.3,0.2,0.6,0.6,0.7,1.1c0.3,0.8,0.7,2.1,1.2,3.7c0.5,1.9,1.3,3.8,2.3,5.8
		c2.6,5.1,7.2,9.9,13.7,14.1c-8.2,6-13.8,13.4-16.7,22.1l-0.3,1.1c-0.4,1.2-0.7,2.2-0.9,2.9c-0.1,0.3-0.4,0.6-0.6,0.9
		c-0.1,0-1,0.5-4.8,0.8l-2.3,0.2v9.4h33.3v-9.5l-2.4-0.1c-4.8-0.3-6.8-0.8-7.5-1.1c0-0.1-0.1-0.3-0.1-0.6c0-1.2,0.5-3.5,3.1-8
		c2.6-4.6,6.2-8.4,10.5-11.5c3.7,3,6.6,6.8,8.7,11.3c0.9,2,1.6,3.8,1.9,5.3c0.5,2.1,0.5,2.8,0.5,2.9c0,0.3,0,0.6,0,0.7
		c-0.1,0.1-0.2,0.1-0.3,0.2c-0.1,0-1.1,0.5-5.4,0.8l-2.3,0.2v9.4h34.5V739l-2.2-0.2C244.2,738.6,243.1,738,242.8,737.8z"/>
	<path class="st1" d="M296,685.4l2.2,0.2c4.3,0.4,5.3,1.4,5.4,1.5c0.3,0.4,0.5,0.9,0.6,1.5s0.2,2.6,0.2,10.1
		c0,5.7-0.3,10.9-0.9,15.6c-0.4,2.7-0.9,5.1-1.5,7.2c-0.7,2.1-1.8,4.5-3.3,7.1c0,0,0,0,0,0.1c-3.2,5.5-11.1,5.6-14.6,0.3
		c-0.4-0.6-0.7-1.1-1.1-1.7c-1.1-1.8-2-3.8-2.6-5.9c-0.7-2.1-1.2-4.6-1.5-7.2c-0.4-2.7-0.6-5.9-0.7-9.4s-0.2-7.4-0.2-11.5
		c0-5.1,0.7-6.2,0.7-6.2l0,0c0.2-0.2,1.2-1.2,5.5-1.6l2.2-0.2v-9.6h-32.6v9.6l2.3,0.2c4.2,0.4,4.9,1.4,5,1.5c0.3,0.4,0.4,1,0.5,1.9
		c0.1,1.2,0.1,3.8,0.1,7.5c0,3.9,0.2,8.2,0.7,12.6c1.2,12.8,5.1,22.8,11.3,29.6c1.5,1.6,5,4.3,8.4,6.8c5.5,4,12.9,4,18.4,0
		c3.4-2.5,6.9-5.2,8.4-6.8c2.1-2.3,4-5,5.5-7.8s2.8-6.1,3.7-9.7c0.9-3.6,1.7-7.7,2.1-12.2s0.7-8.8,0.7-12.7c0-3.8,0.1-6.3,0.2-7.5
		c0.1-0.8,0.3-1.5,0.7-2.1c0.2-0.1,1.3-0.7,4.8-1.2l2.1-0.3v-9.5H296V685.4z"/>
	<path class="st1" d="M382.3,713.5c-2.7-2.2-8.8-5.4-18.6-9.8c-1.2-0.5-2.7-1.3-4.5-2.2c-3.6-1.8-7.9-4.7-7.9-8
		c0-2.3,0.8-4.1,2.3-5.5c0.8-0.7,1.9-1.3,3.1-1.7c0.9-0.3,2.7-0.7,5.9-0.7c2.5,0,4.5,0.5,6.2,1.6c2,1.3,2,2.3,2,2.6
		c0,1.3-0.6,2.8-1.7,4.6l-1.3,2l6,4.3l1.1-0.2c2.5-0.5,4.8-1.7,6.9-3.5c2.6-2.3,3.9-4.9,3.9-7.8c0-4.4-2.3-8-6.9-10.8
		c-4.2-2.6-9.5-3.8-15.8-3.8c-8,0-14.6,1.7-19.6,5c-5.5,3.7-8.3,8.8-8.3,15.1c0,5.1,2.3,9.7,6.7,13.7c2,1.8,4.2,3.4,6.8,4.9
		c2.5,1.4,4.5,2.5,6.1,3.2c1.5,0.7,2.5,1.1,2.8,1.3s1.2,0.5,2.5,1.1c1.3,0.5,2.9,1.3,5,2.2c5.9,2.7,8.9,5.6,8.9,8.6
		c0,2.7-1,4.8-3.1,6.5c-2.2,1.7-5.4,2.6-9.5,2.6s-7.4-1-10-2.9c-2-1.5-3-3.1-3-4.9c0-2.4,0.5-4.2,1.6-5.5l1.3-1.6l-4.8-5.6l-1.5,0.3
		c-3.2,0.7-6.1,2.2-8.4,4.4c-2.7,2.6-4.2,5.6-4.3,9c-0.2,5.6,3,10.1,9.4,13.6c5.4,3,11.8,4.5,18.9,4.5c7.7,0,14.5-1.9,20-5.6
		c2.8-1.9,5.1-4.2,6.9-6.9c1.8-2.8,2.7-5.9,2.7-9.1c0-3.2-0.7-6-2.1-8.3C387.1,717.9,385.1,715.8,382.3,713.5z"/>
	<path class="st1" d="M433,667.4l2.3,0.2c2,0.2,3.7,0.4,4.9,0.6c0.8,0.1,1.4,0.4,2,0.9c0.1,0.3,0.6,1.5,0.6,5.9v56.3
		c0,5.1-0.9,6.1-1,6.2c-0.3,0.3-0.9,0.6-1.7,0.8c-1.2,0.3-2.9,0.5-4.9,0.8l-2.2,0.3v9.3h41.8v-9.4l-2.3-0.2
		c-3.6-0.3-6.4-0.7-8.4-0.9c-2.2-0.3-3.3-0.8-3.8-1.1s-0.7-0.6-0.9-1.2c-0.2-1-0.4-2.5-0.4-4.5v-23.5h31.4l2.7-11.4H459V669h23
		c6.4,0,8.7,0.8,9.5,1.3c0.6,0.3,1,0.8,1.3,1.3c0.2,0.5,0.5,1.5,0.5,3.5c0,1.8-0.4,4.8-1.1,8.8l-0.5,3H502l7.1-29.1h-76v9.6
		L433,667.4L433,667.4z"/>
	<path class="st1" d="M545.5,674.6c-7.1,0-13.4,1.8-18.8,5.5c-2.5,1.7-4.8,3.8-6.7,6.1s-3.5,4.9-4.7,7.7c-1.3,2.7-2.2,5.7-2.8,8.7
		c-0.6,3-0.9,6.1-0.9,9.2c0,10.1,2.8,18.8,8.3,26c6.3,8.1,14.9,12.1,25.6,12.1c10.7,0,19.3-4,25.6-12c5.6-7.2,8.5-15.9,8.5-26.1
		c0-10.1-2.9-18.7-8.5-25.7C564.8,678.6,556.2,674.6,545.5,674.6z M560.4,725c-0.5,2-1.2,3.9-2,5.6c-0.8,1.6-1.8,3.1-3,4.3
		c-1.1,1.2-2.5,2.1-4.1,2.8s-3.5,1-5.7,1s-4.1-0.3-5.7-1l0,0c-7-3-10.5-11.7-10.5-25.8c0-4.9,0.5-9.2,1.4-12.8
		c2.3-9.1,7-13.4,14.8-13.4c4.1,0,7.3,1.2,9.8,3.6c1.2,1.1,2.2,2.5,3,4.1c0.8,1.7,1.5,3.5,2,5.4c0.5,2,0.9,4.1,1.1,6.3
		c0.2,2.2,0.3,5.3,0.3,9C561.9,717.6,561.4,721.3,560.4,725z"/>
	<path class="st1" d="M640.8,677.1c-1.9-0.9-4.2-1.6-6.7-2c-2.4-0.4-4.7-0.5-6.9-0.5s-5,0.2-8.4,0.5c-1.1,0.1-2.7,0.2-4.7,0.4
		c-1.8,0.2-5.1,0.3-9.6,0.3h-14.1v9.5l2.2,0.3c1.7,0.2,3.1,0.5,4.1,0.8c0.7,0.2,1.3,0.6,1.8,1.2c0.1,0.1,0.7,1.2,0.7,6v38.9
		c0,1.6-0.1,2.9-0.3,3.8c-0.1,0.5-0.4,1-0.8,1.4c-0.1,0.1-1.2,0.7-6.6,1.3H591l-1.9,0.9v8.7h42.5V739l-2.4-0.1
		c-9-0.3-11.6-1.3-12.3-1.7s-0.9-0.8-1-1.1c-0.2-0.8-0.4-1.9-0.4-3.3v-42.7c0-1.3,0-4.5,8.2-4.5c3.5,0,5.3,0.6,6.1,1
		c1.5,0.9,1.7,1.8,1.7,2.6c0,3.4-0.8,5.9-2.4,7.4l-2,2l6.3,5l1.2-0.3c3.3-0.9,6.3-2.8,8.9-5.6c2.9-3.1,4.4-6.5,4.4-10.2
		C647.9,683,645.5,679.3,640.8,677.1z"/>
	<path class="st1" d="M698.4,675c-3.3-0.2-6.5-0.3-9.5-0.3c-11.3,0-20.2,4.1-26.5,12.1c-5.5,7.1-8.3,16-8.3,26.4
		c0,10.2,2.6,18.7,7.6,25.4c5.8,7.6,13.8,11.5,24.1,11.5c5.6,0,10.6-1.6,15-4.7c-0.2,6.7-1.6,12.1-4,16.2c-1.4,2.3-3.4,4.1-5.8,5.6
		c-2.3,1.4-5.3,2.1-8.9,2.1c-3.7,0-7-0.6-9.9-1.7l-2.4-0.9L666,777l2,1c4.9,2.4,10,3.6,15.3,3.6c10.6,0,19.1-4,25.4-12
		c5.7-7.2,8.6-16,8.6-26.3v-50.9c0-1.7,0.1-3,0.2-4c0.1-0.6,0.4-1.2,0.9-1.7c0.1-0.1,1.2-0.8,6.2-1.1l2.3-0.2v-9.6h-17
		C708.8,675.7,706,675.6,698.4,675z M686.2,738.7c-3.5,0-14.3,0-14.3-25.6c0-27.4,12.7-27.4,16.8-27.4c5.4,0,9.1,1,11,3
		c0.4,0.4,1.2,1.7,1.2,5.9v30.6c0,3.7-1.3,6.8-4.1,9.4C693.8,737.4,690.4,738.7,686.2,738.7z"/>
	<path class="st1" d="M784.5,731.1l-1.8,1.5c-3.7,3.2-9.2,4.8-16.5,4.8c-10.5,0-16.3-5.7-18-18c13.6-0.4,24-3.2,31.1-8.2
		c6.8-4.8,10.3-10.9,10.3-18c0-5.7-2.2-10.3-6.7-13.6c-4.4-3.3-10.5-5-18.1-5c-10,0-18.2,3.7-24.6,11c-6.3,7.3-9.5,16.5-9.5,27.5
		c0,10.7,2.9,19.5,8.6,26.1c6,6.9,14.5,10.5,25.1,10.5c11,0,19.4-3.5,25-10.4l1.4-1.8L784.5,731.1z M763.9,685.7
		c1.8,0,3.3,0.3,4.4,0.7c2.8,1.2,4.1,3.4,4.1,6.7c0,2.8-0.7,5-2.1,6.8c-3.9,5-11.5,7.8-22.5,8.4c0.3-3.3,0.9-6.6,1.9-9.7
		c0.6-1.9,1.4-3.7,2.3-5.3c0.9-1.6,1.9-3,3.1-4.1c1.1-1.1,2.4-2,3.8-2.6C760.5,686,762.1,685.7,763.9,685.7z"/>
</g>
</svg>
