<?xml version="1.0" encoding="utf-8"?>
<!-- Generator: Adobe Illustrator 22.0.0, SVG Export Plug-In . SVG Version: 6.00 Build 0)  -->
<svg version="1.1" id="Layer_1" xmlns="http://www.w3.org/2000/svg" xmlns:xlink="http://www.w3.org/1999/xlink" x="0px" y="0px"
	 viewBox="0 0 16 16" style="enable-background:new 0 0 16 16;" xml:space="preserve">
<style type="text/css">
	.st0{fill:#FFFFFF;}
</style>
<path class="st0" d="M4.5,2C4.2,2,4,2.2,4,2.5v11C4,13.8,4.2,14,4.5,14h1C5.8,14,6,13.8,6,13.5v-11C6,2.2,5.8,2,5.5,2H4.5z M10.5,2
	C10.2,2,10,2.2,10,2.5v11c0,0.3,0.2,0.5,0.5,0.5h1c0.3,0,0.5-0.2,0.5-0.5v-11C12,2.2,11.8,2,11.5,2H10.5z"/>
</svg>
