<?xml version="1.0" encoding="utf-8"?>
<!-- Generator: Adobe Illustrator 22.0.0, SVG Export Plug-In . SVG Version: 6.00 Build 0)  -->
<svg version="1.1" id="Layer_1" xmlns="http://www.w3.org/2000/svg" xmlns:xlink="http://www.w3.org/1999/xlink" x="0px" y="0px"
	 viewBox="0 0 16 16" style="enable-background:new 0 0 16 16;" xml:space="preserve">
<style type="text/css">
	.st0{fill:#FFFFFF;}
</style>
<path class="st0" d="M13.1,1.3l-2.4,3.9l-0.3-1L9.4,7l2-0.9V7l4-1.6l-2.2-0.1l1.5-2.2l-2.3,1.3L13.1,1.3L13.1,1.3z M6.6,2.3l-1,0.5
	l0.6,1.8L0.5,7.1L0.9,8l5.6-2.5l1,1.6l1.6-0.7L8.4,4.1L6.6,2.3L6.6,2.3z M6.2,7.6v0.7H3.4c0.5,1.2,1.6,2.1,2.8,2.3v1.1h1.8
	c-0.4,1-1.1,1.8-1.9,2.4H5.4v0.6h9.1v-0.6h-0.9c-0.9-0.7-1.6-1.5-2-2.4h2v-0.9c0.6-0.2,1.3-0.6,1.9-1.2c-0.6-0.6-1.3-0.9-1.9-1v-1
	L6.2,7.6L6.2,7.6z"/>
</svg>
