<?xml version="1.0" encoding="utf-8"?>
<!-- Generator: Adobe Illustrator 22.0.0, SVG Export Plug-In . SVG Version: 6.00 Build 0)  -->
<svg version="1.1" id="Layer_1" xmlns="http://www.w3.org/2000/svg" xmlns:xlink="http://www.w3.org/1999/xlink" x="0px" y="0px"
	 viewBox="0 0 24 24" style="enable-background:new 0 0 24 24;" xml:space="preserve">
<style type="text/css">
	.st0{fill:#7FBE4A;}
	.st1{fill:#5ABBEF;}
</style>
<path class="st0" d="M18.5,3.3c-1.6,0-2.9,1.1-3.3,2.5H12v2h3.2c0.4,1.4,1.8,2.5,3.3,2.5c1.9,0,3.5-1.6,3.5-3.5S20.4,3.3,18.5,3.3z
	 M18.5,8.3c-0.8,0-1.5-0.7-1.5-1.5s0.7-1.5,1.5-1.5S20,6,20,6.8S19.3,8.3,18.5,8.3z"/>
<path class="st0" d="M12,5.8H8.8C8.4,4.4,7.1,3.3,5.5,3.3C3.6,3.3,2,4.9,2,6.8s1.6,3.5,3.5,3.5c1.6,0,2.9-1.1,3.3-2.5H12V5.8z
	 M5.5,8.3C4.7,8.3,4,7.6,4,6.8s0.7-1.5,1.5-1.5S7,6,7,6.8S6.3,8.3,5.5,8.3z"/>
<path class="st1" d="M4.5,13v2h2v-2H4.5z M15.5,13v5c0,1.7,1.3,3,3,3h1v-2h-1c-0.6,0-1-0.4-1-1v-1h2v-2h-2v-2H15.5z M7.5,15v6h2v-4
	h1c0.6,0,1,0.4,1,1v3h2v-3c0-1.7-1.3-3-3-3h-1H7.5z M4.5,17v4h2v-4H4.5z"/>
</svg>
