<?xml version="1.0" encoding="utf-8"?>
<!-- Generator: Adobe Illustrator 22.0.0, SVG Export Plug-In . SVG Version: 6.00 Build 0)  -->
<svg version="1.1" id="Layer_1" xmlns="http://www.w3.org/2000/svg" xmlns:xlink="http://www.w3.org/1999/xlink" x="0px" y="0px"
	 viewBox="0 0 24 24" style="enable-background:new 0 0 24 24;" xml:space="preserve">
<style type="text/css">
	.st0{fill:#FFFFFF;}
</style>
<g>
	<path class="st0" d="M15.7,3.2l-5.6-2C9.7,1,9.2,1.1,8.9,1.3L3,4.6C2.5,4.9,2.2,5.5,2.3,6.1l1.4,9.1c0.1,0.6,0.5,1,1.1,1.2l4.2,1.2
		c0.3,0.1,0.7,0.1,1-0.1l5.5-2.4c0.5-0.2,0.9-0.7,0.9-1.3l0.4-9.3C16.7,4,16.3,3.4,15.7,3.2z M13.2,9.9L9,16.1l-1.6-1.1l3.2-4.6h-4
		c-0.4,0-0.7-0.2-0.9-0.5c-0.2-0.3-0.2-0.7,0-1l4.1-6.2l1.7,1.1L8.4,8.3h4c0.4,0,0.7,0.2,0.9,0.5C13.5,9.2,13.4,9.6,13.2,9.9z"/>
	<g>
		<path class="st0" d="M20.3,6.5L17.6,6l-0.1,2.9C17.7,9,17.9,9.1,18,9.3l2.1,4.5l-1.8,0.8l-0.9-1.9l-0.1,1.2c0,0.7-0.4,1.4-1,1.9
			l-1.4,4.7L13,19.9l0.9-3l-3.5,1.5c-0.3,0.1-0.6,0.2-1,0.2c-0.2,0-0.5,0-0.7-0.1l-0.2-0.1l-0.2,0.8c-0.2,0.9,0.4,1.8,1.3,2l7.7,1.5
			c0.7,0.1,1.5-0.2,1.8-0.8l1.6-3c0.1-0.2,0.2-0.5,0.2-0.7l0.6-10.1C21.8,7.4,21.2,6.7,20.3,6.5z"/>
	</g>
</g>
</svg>
