<?xml version="1.0" encoding="utf-8"?>
<!-- Generator: Adobe Illustrator 22.0.0, SVG Export Plug-In . SVG Version: 6.00 Build 0)  -->
<svg version="1.1" id="Layer_1" xmlns="http://www.w3.org/2000/svg" xmlns:xlink="http://www.w3.org/1999/xlink" x="0px" y="0px"
	 viewBox="0 0 24 24" style="enable-background:new 0 0 24 24;" xml:space="preserve">
<style type="text/css">
	.st0{fill:#FFFFFF;}
</style>
<path class="st0" d="M22.4,16.3c-0.1-0.1-0.3-0.2-0.5-0.2H21V5.4c0-1.8-1.5-3.3-3.3-3.3h-14C2,2.1,0.5,3.6,0.5,5.4
	c0,1.4,1,2.2,1.2,2.3C1.8,7.8,2,7.9,2.1,7.9C2.6,7.9,3,7.5,3,7.1c0-0.3-0.1-0.5-0.3-0.6c0,0-0.5-0.4-0.5-1c0-0.9,0.7-1.6,1.6-1.6
	s1.6,0.7,1.6,1.6v13.1c0,1.8,1.5,3.3,3.3,3.3h11.5c1.8,0,3.3-1.5,3.3-3.3C23.5,17.2,22.5,16.4,22.4,16.3 M20.2,20.2h-9.5
	c0.3-0.5,0.4-1.1,0.4-1.6c0-0.3,0-0.6-0.1-0.8h10.5c0.2,0.2,0.3,0.5,0.3,0.8C21.9,19.5,21.1,20.2,20.2,20.2
	C20.2,20.2,20.2,20.2,20.2,20.2 M16.3,10.3l-3.4,5l-1.3-0.9l2.6-3.7h-3.2c-0.3,0-0.6-0.2-0.7-0.4c-0.1-0.3-0.1-0.6,0-0.8l3.3-5
	l1.3,0.9L12.4,9h3.2c0.3,0,0.6,0.2,0.7,0.4C16.5,9.7,16.5,10,16.3,10.3z"/>
</svg>
