<?xml version="1.0" encoding="utf-8"?>
<!-- Generator: Adobe Illustrator 22.0.0, SVG Export Plug-In . SVG Version: 6.00 Build 0)  -->
<svg version="1.1" id="Layer_1" xmlns="http://www.w3.org/2000/svg" xmlns:xlink="http://www.w3.org/1999/xlink" x="0px" y="0px"
	 viewBox="0 0 16 16" style="enable-background:new 0 0 16 16;" xml:space="preserve">
<style type="text/css">
	.st0{fill:#FFFFFF;}
</style>
<path class="st0" d="M1.7,1.1c-0.3,0-0.6,0.3-0.6,0.6s0.3,0.6,0.6,0.6h0.9l-2,5.3c0,0.1,0,0.1,0,0.2c0,1.5,1.1,2.6,2.6,2.6
	s2.6-1.1,2.6-2.6c0-0.1,0-0.1,0-0.2l-2-5.3h3.8v10.4H4c-1,0-1.7,0.2-1.7,1.2S3,14.9,4,14.9H12c1,0,1.7-0.2,1.7-1.2S13,12.6,12,12.6
	H8.6V2.2h3.7l-1.9,5.3c0,0.1,0,0.1,0,0.2c0,1.5,1.1,2.6,2.6,2.6s2.6-1.1,2.6-2.6c0-0.1,0-0.1,0-0.2l-1.9-5.3h0.8
	c0.3,0,0.6-0.3,0.6-0.6s-0.3-0.6-0.6-0.6H1.7z M3.1,4l1.2,3.1H1.9L3.1,4z M11.7,7.1l1.2-3.2l1.2,3.2H11.7z"/>
</svg>
