<?xml version="1.0" encoding="utf-8"?>
<!-- Generator: Adobe Illustrator 22.0.0, SVG Export Plug-In . SVG Version: 6.00 Build 0)  -->
<svg version="1.1" id="Layer_1" xmlns="http://www.w3.org/2000/svg" xmlns:xlink="http://www.w3.org/1999/xlink" x="0px" y="0px"
	 viewBox="0 0 24 24" style="enable-background:new 0 0 24 24;" xml:space="preserve">
<style type="text/css">
	.st0{fill:#FFFFFF;}
</style>
<path class="st0" d="M22.4,16.3c-0.1-0.1-0.3-0.2-0.5-0.2H21V5.4c0-1.8-1.5-3.3-3.3-3.3h-14C2,2.1,0.5,3.6,0.5,5.4
	c0,1.4,1,2.2,1.2,2.3C1.8,7.8,2,7.9,2.1,7.9C2.6,7.9,3,7.5,3,7.1c0-0.3-0.1-0.5-0.3-0.6c0,0-0.5-0.4-0.5-1c0-0.9,0.7-1.6,1.6-1.6
	s1.6,0.7,1.6,1.6v13.1c0,1.8,1.5,3.3,3.3,3.3h11.5c1.8,0,3.3-1.5,3.3-3.3C23.5,17.2,22.5,16.4,22.4,16.3 M10.4,8.7h6.6
	c0.5,0,0.8,0.4,0.8,0.8s-0.4,0.8-0.8,0.8h-6.6c-0.5,0-0.8-0.4-0.8-0.8S9.9,8.7,10.4,8.7 M9.5,12.8c0-0.5,0.4-0.8,0.8-0.8h6.6
	c0.5,0,0.8,0.4,0.8,0.8s-0.4,0.8-0.8,0.8h-6.6C9.9,13.6,9.5,13.3,9.5,12.8 M20.2,20.2h-9.5c0.3-0.5,0.4-1.1,0.4-1.6
	c0-0.3,0-0.6-0.1-0.8h10.5c0.2,0.2,0.3,0.5,0.3,0.8C21.9,19.5,21.1,20.2,20.2,20.2C20.2,20.2,20.2,20.2,20.2,20.2"/>
</svg>
