<?xml version="1.0" encoding="utf-8"?>
<!-- Generator: Adobe Illustrator 22.0.0, SVG Export Plug-In . SVG Version: 6.00 Build 0)  -->
<svg version="1.1" id="Layer_1" xmlns="http://www.w3.org/2000/svg" xmlns:xlink="http://www.w3.org/1999/xlink" x="0px" y="0px"
	 viewBox="0 0 24 24" style="enable-background:new 0 0 24 24;" xml:space="preserve">
<style type="text/css">
	.st0{fill:#FFFFFF;}
</style>
<g>
	<g>
		<path class="st0" d="M11.6,10.4c-0.5-0.6-1.4-1.3-2.3-1.3c-3.1,1.9-6.9,3.2-6.9,3.2s4.5,0.5,6,7.8c0,0,1.8-4.3,4.1-6.7
			C12.8,12.2,12.1,11,11.6,10.4z"/>
		<path class="st0" d="M18.1,0.5c0,0-1.3-0.2-1.8,0.3c-0.5,0.5-2.2,4.3-4.9,6.7c0,0,0.1,0,0.1,0l0,0c0.2,0,0.4,0.1,0.7,0.2
			c0.5,0.2,1,0.7,1.4,1.2c0.4,0.5,0.7,1.1,0.8,1.7c0,0.3,0.1,0.7,0,1.1c2.2-1.5,3.9-2.4,7.2-3.1c1.4-0.3,1.4-1.4,1.4-2.9
			C23.2,4.2,21.9,1.3,18.1,0.5z"/>
	</g>
	<path class="st0" d="M2.2,13c-0.6,0.1-0.9,0.4-1.1,0.9c-0.3,0.6-0.3,1.5,0,2.7c0.3,0.9,0.8,1.8,1.4,2.5S4,20.3,4.6,20
		c0.4-0.2,0.3-1.2,0.1-1.9c-0.3-0.9-1.7-1.6-2.7-1.9c0.3-0.2,2.8-1.7,2.8-1.7C4,13.7,2.8,13,2.2,13z"/>
	<path class="st0" d="M12.6,14.3c3,1.3,1.6,6.6,6.3,9.2c-0.9-2.8-0.6-3.2-0.6-3.2c1.3,1.1,2.2,1.2,3.7,1c-4.7-3-4-7.3-7.4-8.9
		C13.5,12.9,12.6,14.3,12.6,14.3z"/>
	<path class="st0" d="M4.1,16c0.6,0.4,1.1,1.1,1.4,1.9c0.1,0.3,0.2,0.7,0.2,1l1.1-1.1c-0.3-0.9-0.9-1.8-1.5-2.5L4.1,16z"/>
	<path class="st0" d="M7.2,18.7c0,0-0.9,1.5-2.7,2.4c1.1,0.7,2,1,2.7,0.5C7.8,21,7.4,19.1,7.2,18.7"/>
</g>
</svg>
