<?xml version="1.0" encoding="utf-8"?>
<!-- Generator: Adobe Illustrator 22.0.0, SVG Export Plug-In . SVG Version: 6.00 Build 0)  -->
<svg version="1.1" id="Layer_1" xmlns="http://www.w3.org/2000/svg" xmlns:xlink="http://www.w3.org/1999/xlink" x="0px" y="0px"
	 viewBox="0 0 24 24" style="enable-background:new 0 0 24 24;" xml:space="preserve">
<style type="text/css">
	.st0{fill:#FFFFFF;}
	.st1{fill:#6FBE44;}
</style>
<path class="st0" d="M15.3,21.9H4.2c-1.8,0-3.2-1.4-3.2-3.2v-2.2c0-0.6,0.4-1,1-1h1.2V5.3c0-1.8,1.4-3.2,3.2-3.2h13.3
	c1.8,0,3.2,1.4,3.2,3.2v2.2c0,1.8-1.4,3.2-3.2,3.2h-0.1v6.8C19.7,19.9,17.7,21.9,15.3,21.9z M15.3,19.9c1.3,0,2.3-1,2.3-2.3V4.1H6.4
	c-0.7,0-1.2,0.5-1.2,1.2v10.1h5.7c0.6,0,1,0.4,1,1C11.9,16.6,11.9,19.9,15.3,19.9z M3,17.4v1.2c0,0.7,0.5,1.2,1.2,1.2H11
	c-0.6-0.8-0.9-1.6-1.1-2.4H3z M19.7,8.8h0.1c0.7,0,1.2-0.5,1.2-1.2V5.3c0-0.7-0.5-1.2-1.2-1.2h-0.1V8.8z M10.9,13H8.7
	c-0.6,0-1-0.4-1-1c0-0.6,0.4-1,1-1h2.2c0.6,0,1,0.4,1,1C11.9,12.6,11.4,13,10.9,13z M14.2,8.6H8.7c-0.6,0-1-0.4-1-1s0.4-1,1-1h5.6
	c0.6,0,1,0.4,1,1S14.8,8.6,14.2,8.6z"/>
<path class="st1" d="M19,12.9v3h3v3h-3v3h-3v-3h-3v-3h3v-3H19"/>
</svg>
