<?xml version="1.0" encoding="utf-8"?>
<!-- Generator: Adobe Illustrator 22.0.0, SVG Export Plug-In . SVG Version: 6.00 Build 0)  -->
<svg version="1.1" id="Layer_1" xmlns="http://www.w3.org/2000/svg" xmlns:xlink="http://www.w3.org/1999/xlink" x="0px" y="0px"
	 viewBox="0 0 24 24" style="enable-background:new 0 0 24 24;" xml:space="preserve">
<style type="text/css">
	.st0{fill:#FFFFFF;}
	.st1{fill:#FFFFFF;enable-background:new    ;}
</style>
<path class="st0" d="M7.2,8.3c0.5-1.2,2.2-1.2,2.7,0l1.4,3.4L15,12c1.3,0.1,1.8,1.7,0.8,2.5L13,16.9l0.8,3.6
	c0.3,1.3-1.1,2.2-2.2,1.6l-3.1-1.9L5.4,22c-1.1,0.7-2.5-0.3-2.2-1.6L4,16.8l-2.8-2.4c-1-0.8-0.5-2.4,0.8-2.5l3.6-0.3L7.2,8.3z"/>
<path class="st1" d="M13.8,1.7c0.1-0.3,0.5-0.4,0.8-0.3c0.1,0.1,0.3,0.2,0.3,0.3L15.4,3c0.1,0.2,0.3,0.3,0.5,0.4l1.4,0.1
	c0.3,0,0.6,0.3,0.5,0.6c0,0.2-0.1,0.3-0.2,0.4l-1.1,0.9c-0.2,0.1-0.2,0.4-0.2,0.6l0.3,1.4c0.1,0.3-0.1,0.6-0.4,0.7
	c-0.1,0-0.3,0-0.4-0.1l-1.2-0.8c-0.2-0.1-0.4-0.1-0.6,0L12.8,8c-0.3,0.2-0.6,0.1-0.8-0.2c-0.1-0.1-0.1-0.3-0.1-0.4L12.2,6
	c0.1-0.2,0-0.4-0.2-0.6l-1.1-0.9c-0.2-0.2-0.3-0.6-0.1-0.8c0.1-0.1,0.2-0.2,0.4-0.2l1.4-0.1c0.2,0,0.4-0.2,0.5-0.4L13.8,1.7z
	 M19.6,9.6c0.1-0.3,0.5-0.4,0.8-0.3c0.1,0.1,0.2,0.2,0.3,0.3l0.5,1.1c0.1,0.1,0.2,0.2,0.3,0.3l1.1,0.5c0.3,0.1,0.4,0.5,0.3,0.8
	c-0.1,0.1-0.2,0.2-0.3,0.3L21.4,13c-0.1,0.1-0.2,0.2-0.3,0.3l-0.5,1.1c-0.1,0.3-0.5,0.4-0.8,0.3c-0.1-0.1-0.2-0.2-0.3-0.3L19,13.3
	c0-0.2-0.1-0.3-0.2-0.3l-1.1-0.5c-0.3-0.1-0.4-0.5-0.3-0.8c0.1-0.1,0.2-0.2,0.3-0.3l1.1-0.5c0.1-0.1,0.2-0.2,0.3-0.3L19.6,9.6z"/>
</svg>
