<?xml version="1.0" encoding="utf-8"?>
<!-- Generator: Adobe Illustrator 22.0.0, SVG Export Plug-In . SVG Version: 6.00 Build 0)  -->
<svg version="1.1" id="Layer_1" xmlns="http://www.w3.org/2000/svg" xmlns:xlink="http://www.w3.org/1999/xlink" x="0px" y="0px"
	 viewBox="0 0 24 24" style="enable-background:new 0 0 24 24;" xml:space="preserve">
<style type="text/css">
	.st0{fill:#FFFFFF;}
</style>
<path class="st0" d="M22.3,22H1.7C1.3,22,1,21.7,1,21.3v-0.7C1,20.3,1.3,20,1.7,20h20.7c0.4,0,0.7,0.3,0.7,0.7v0.7
	C23,21.7,22.7,22,22.3,22z"/>
<path class="st0" d="M6.3,18H1.7C1.3,18,1,17.7,1,17.3v-4.7C1,12.3,1.3,12,1.7,12h4.7C6.7,12,7,12.3,7,12.7v4.7
	C7,17.7,6.7,18,6.3,18z"/>
<path class="st0" d="M14.3,18H9.7C9.3,18,9,17.7,9,17.3V8.7C9,8.3,9.3,8,9.7,8h4.7C14.7,8,15,8.3,15,8.7v8.7
	C15,17.7,14.7,18,14.3,18z"/>
<path class="st0" d="M22.3,18h-4.7c-0.4,0-0.7-0.3-0.7-0.7V2.7C17,2.3,17.3,2,17.7,2h4.7C22.7,2,23,2.3,23,2.7v14.7
	C23,17.7,22.7,18,22.3,18z"/>
</svg>
