<?xml version="1.0" encoding="utf-8"?>
<!-- Generator: Adobe Illustrator 22.0.0, SVG Export Plug-In . SVG Version: 6.00 Build 0)  -->
<svg version="1.1" id="Layer_1" xmlns="http://www.w3.org/2000/svg" xmlns:xlink="http://www.w3.org/1999/xlink" x="0px" y="0px"
	 viewBox="0 0 24 24" style="enable-background:new 0 0 24 24;" xml:space="preserve">
<style type="text/css">
	.st0{fill:#FFFFFF;}
</style>
<polygon class="st0" points="3,21 3,1 1,1 1,21 1,23 3,23 23,23 23,21 "/>
<path class="st0" d="M20,7.1c-0.6,0-1.2,0.2-1.7,0.6l-4-1.8c0,0,0,0,0,0c0-1.4-1.1-2.5-2.5-2.5c-1.4,0-2.5,1.1-2.5,2.5
	c0,0.7,0.3,1.3,0.7,1.7l-2.6,6.4c-1.3,0-2.4,1.1-2.4,2.5c0,1.4,1.1,2.5,2.5,2.5c1.4,0,2.5-1.1,2.5-2.5c0-0.7-0.3-1.3-0.7-1.7L12,8.4
	c0.6,0,1.2-0.3,1.6-0.6l4,1.8c0,0,0,0,0,0c0,1.4,1.1,2.5,2.5,2.5s2.5-1.1,2.5-2.5S21.4,7.1,20,7.1z"/>
</svg>
