<?xml version="1.0" encoding="utf-8"?>
<!-- Generator: Adobe Illustrator 22.0.0, SVG Export Plug-In . SVG Version: 6.00 Build 0)  -->
<svg version="1.1" id="Layer_1" xmlns="http://www.w3.org/2000/svg" xmlns:xlink="http://www.w3.org/1999/xlink" x="0px" y="0px"
	 viewBox="0 0 24 24" style="enable-background:new 0 0 24 24;" xml:space="preserve">
<style type="text/css">
	.st0{fill:#FFFFFF;}
</style>
<path class="st0" d="M22.3,22H1.7C1.3,22,1,21.7,1,21.3v-0.7C1,20.3,1.3,20,1.7,20h20.7c0.4,0,0.7,0.3,0.7,0.7v0.7
	C23,21.7,22.7,22,22.3,22z"/>
<path class="st0" d="M14.2,18H9.6c-0.4,0-0.7-0.3-0.7-0.8v-5.5c0-0.3,0.3-0.7,0.7-0.7h4.7c0.3,0,0.6,0.4,0.6,0.8v5.5
	C14.9,17.7,14.6,18,14.2,18z"/>
<path class="st0" d="M6.3,18H1.7C1.3,18,1,17.7,1,17.3V8.7C1,8.3,1.3,8,1.7,8h4.7C6.7,8,7,8.3,7,8.7v8.7C7,17.7,6.7,18,6.3,18z"/>
<path class="st0" d="M22.3,18h-4.7c-0.4,0-0.7-0.3-0.7-0.6V4.6C17,4.3,17.3,4,17.7,4h4.7C22.7,4,23,4.3,23,4.6v12.9
	C23,17.7,22.7,18,22.3,18z"/>
</svg>
