<?xml version="1.0" encoding="utf-8"?>
<!-- Generator: Adobe Illustrator 22.0.0, SVG Export Plug-In . SVG Version: 6.00 Build 0)  -->
<svg version="1.1" id="Layer_1" xmlns="http://www.w3.org/2000/svg" xmlns:xlink="http://www.w3.org/1999/xlink" x="0px" y="0px"
	 viewBox="0 0 24 24" style="enable-background:new 0 0 24 24;" xml:space="preserve">
<style type="text/css">
	.st0{fill:#FFFFFF;}
</style>
<path class="st0" d="M3,19.7V2.4C3,2.2,2.8,2,2.6,2H1.4C1.2,2,1,2.2,1,2.4V20v1.6C1,21.8,1.2,22,1.4,22H3h19.6
	c0.2,0,0.4-0.2,0.4-0.4v-1.3c0-0.2-0.2-0.4-0.4-0.4H3.3C3.2,20,3,19.8,3,19.7z"/>
<g>
	<path class="st0" d="M10.6,18H5.4C5.2,18,5,17.8,5,17.6V8.4C5,8.2,5.2,8,5.4,8h5.3C10.8,8,11,8.2,11,8.4v9.3
		C11,17.8,10.8,18,10.6,18z"/>
	<path class="st0" d="M18.6,18h-5.3c-0.2,0-0.4-0.2-0.4-0.4V2.4C13,2.2,13.2,2,13.4,2h5.3C18.8,2,19,2.2,19,2.4v15.3
		C19,17.8,18.8,18,18.6,18z"/>
</g>
</svg>
