<?xml version="1.0" encoding="utf-8"?>
<!-- Generator: Adobe Illustrator 22.0.0, SVG Export Plug-In . SVG Version: 6.00 Build 0)  -->
<svg version="1.1" id="Layer_1" xmlns="http://www.w3.org/2000/svg" xmlns:xlink="http://www.w3.org/1999/xlink" x="0px" y="0px"
	 viewBox="0 0 32 32" style="enable-background:new 0 0 32 32;" xml:space="preserve">
<style type="text/css">
	.st0{fill:#FFFFFF;}
</style>
<g>
	<polygon class="st0" points="7.2,1.5 1.5,1.5 1.5,7.2 18.6,24.3 24.3,18.6 	"/>
	<path class="st0" d="M30.8,28.7l-4.9-4.9l2.5-2.5c0.6-0.6,0.6-1.5,0-2.1s-1.5-0.6-2.1,0l-7.1,7.1c-0.6,0.6-0.6,1.5,0,2.1
		c0.3,0.3,0.7,0.4,1.1,0.4s0.8-0.1,1.1-0.4l2.5-2.5l4.9,4.9c0.3,0.3,0.7,0.4,1.1,0.4s0.8-0.1,1.1-0.4C31.4,30.2,31.4,29.3,30.8,28.7
		z"/>
</g>
</svg>
