<?xml version="1.0" encoding="utf-8"?>
<!-- Generator: Adobe Illustrator 22.0.0, SVG Export Plug-In . SVG Version: 6.00 Build 0)  -->
<svg version="1.1" id="Layer_1" xmlns="http://www.w3.org/2000/svg" xmlns:xlink="http://www.w3.org/1999/xlink" x="0px" y="0px"
	 viewBox="0 0 16 16" style="enable-background:new 0 0 16 16;" xml:space="preserve">
<style type="text/css">
	.st0{fill:#FFFFFF;}
</style>
<g>
	<path class="st0" d="M7.7675,11.8175C5.7662,11.6976,4.1748,10.0313,4.1748,8c0-0.6284,0.1539-1.2449,0.4454-1.7825l0.0826-0.1526
		L3.388,4.7501L3.2322,4.9943C2.6597,5.8933,2.3573,6.933,2.3573,8c0,3.0338,2.4064,5.5156,5.4102,5.6381V16l3.2663-3.2663
		L7.7675,9.4674V11.8175z"/>
	<path class="st0" d="M8.2325,2.3619V0L4.9662,3.2663l3.2663,3.2663v-2.351C10.2338,4.3024,11.8247,5.9687,11.8247,8
		c0,0.6293-0.1535,1.2459-0.4449,1.7825l-0.0826,0.1526l1.3149,1.3158l0.1553-0.2452c0.573-0.899,0.8754-1.9387,0.8754-3.0057
		C13.6427,4.9666,11.2363,2.4844,8.2325,2.3619z"/>
</g>
</svg>
