<?xml version="1.0" encoding="utf-8"?>
<!-- Generator: Adobe Illustrator 22.0.0, SVG Export Plug-In . SVG Version: 6.00 Build 0)  -->
<svg version="1.1" id="Layer_1" xmlns="http://www.w3.org/2000/svg" xmlns:xlink="http://www.w3.org/1999/xlink" x="0px" y="0px"
	 viewBox="0 0 16 16" style="enable-background:new 0 0 16 16;" xml:space="preserve">
<style type="text/css">
	.st0{fill:#FFFFFF;}
</style>
<circle class="st0" cx="8" cy="8" r="2.5"/>
<path class="st0" d="M16,7h-1.6C14,4.2,11.8,2,9,1.6V0H7v1.6C4.2,2,2,4.2,1.6,7H0v2h1.6C2,11.8,4.2,14,7,14.4V16h2v-1.6
	c2.8-0.4,5-2.6,5.4-5.4H16V7z M8,12.5c-2.5,0-4.5-2-4.5-4.5s2-4.5,4.5-4.5s4.5,2,4.5,4.5S10.5,12.5,8,12.5z"/>
</svg>
