<?xml version="1.0" encoding="utf-8"?>
<!-- Generator: Adobe Illustrator 22.0.0, SVG Export Plug-In . SVG Version: 6.00 Build 0)  -->
<svg version="1.1" id="Layer_1" xmlns="http://www.w3.org/2000/svg" xmlns:xlink="http://www.w3.org/1999/xlink" x="0px" y="0px"
	 viewBox="0 0 16 16" style="enable-background:new 0 0 16 16;" xml:space="preserve">
<style type="text/css">
	.st0{fill:#FFFFFF;}
</style>
<path class="st0" d="M8,0.9697c-0.401,0-0.7273,0.3262-0.7273,0.7273V14.303c0,0.4006,0.3262,0.7273,0.7273,0.7273
	c0.4006,0,0.7273-0.3267,0.7273-0.7273V1.697C8.7273,1.2959,8.4006,0.9697,8,0.9697z"/>
<path class="st0" d="M0.2129,8.5146l1.9394,1.9395c0.2841,0.2841,0.7453,0.2841,1.0294,0c0.2836-0.2836,0.2836-0.7458,0-1.0294
	L2.4838,8.7273H5.576c0.4011,0,0.7273-0.3262,0.7273-0.7273S5.9771,7.2727,5.576,7.2727H2.4838l0.6979-0.6974
	c0.2836-0.2836,0.2836-0.7457,0-1.0294c-0.2841-0.2841-0.7452-0.2841-1.0294,0L0.2129,7.4854C0.071,7.6268-0.0001,7.8134,0,8
	C-0.0001,8.1866,0.071,8.3732,0.2129,8.5146z"/>
<path class="st0" d="M15.7871,7.4854l-1.9394-1.9395c-0.2841-0.2841-0.7453-0.2841-1.0294,0c-0.2836,0.2836-0.2836,0.7458,0,1.0294
	l0.6979,0.6974H10.424c-0.4011,0-0.7273,0.3262-0.7273,0.7273c0,0.4011,0.3262,0.7273,0.7273,0.7273h3.0923l-0.6979,0.6974
	c-0.2836,0.2836-0.2836,0.7457,0,1.0294c0.2841,0.2841,0.7452,0.2841,1.0294,0l1.9394-1.9395C15.929,8.3732,16.0001,8.1866,16,8
	C16.0001,7.8134,15.929,7.6268,15.7871,7.4854z"/>
</svg>
