<?xml version="1.0" encoding="utf-8"?>
<!-- Generator: Adobe Illustrator 22.0.0, SVG Export Plug-In . SVG Version: 6.00 Build 0)  -->
<svg version="1.1" id="Layer_1" xmlns="http://www.w3.org/2000/svg" xmlns:xlink="http://www.w3.org/1999/xlink" x="0px" y="0px"
	 viewBox="0 0 16 16" style="enable-background:new 0 0 16 16;" xml:space="preserve">
<style type="text/css">
	.st0{fill:#FFFFFF;}
</style>
<path class="st0" d="M14.0009,15.5c-0.5523,0-1-0.4477-1-1v-13c0-0.5523,0.4477-1,1-1c0.5523,0,1,0.4477,1,1v13
	C15.0009,15.0523,14.5532,15.5,14.0009,15.5"/>
<path class="st0" d="M11.0018,7c0.5523,0,1,0.4477,1,1s-0.4477,1-1,1h-7.586l2.294,2.292l0,0c0.391,0.391,0.391,1.025,0,1.416
	s-1.025,0.391-1.416,0l-4-4C0.2932,8.7074,0.2926,8.7068,0.292,8.7062c-0.39-0.391-0.3892-1.0242,0.0018-1.4142l4-4
	c0.391-0.391,1.025-0.391,1.416,0s0.391,1.025,0,1.416L3.4158,7H11.0018z"/>
</svg>
