<?xml version="1.0" encoding="utf-8"?>
<!-- Generator: Adobe Illustrator 22.0.0, SVG Export Plug-In . SVG Version: 6.00 Build 0)  -->
<svg version="1.1" id="Layer_1" xmlns="http://www.w3.org/2000/svg" xmlns:xlink="http://www.w3.org/1999/xlink" x="0px" y="0px"
	 viewBox="0 0 16 16" style="enable-background:new 0 0 16 16;" xml:space="preserve">
<style type="text/css">
	.st0{fill:#FFFFFF;}
</style>
<path class="st0" d="M0.5,14.0009c0-0.5523,0.4477-1,1-1h13c0.5523,0,1,0.4477,1,1c0,0.5523-0.4477,1-1,1h-13
	C0.9477,15.0009,0.5,14.5532,0.5,14.0009"/>
<path class="st0" d="M9,11.0018c0,0.5523-0.4477,1-1,1s-1-0.4477-1-1v-7.586l-2.292,2.294l0,0c-0.391,0.391-1.025,0.391-1.416,0
	s-0.391-1.025,0-1.416l4-4C7.2926,0.2932,7.2932,0.2926,7.2938,0.292c0.391-0.39,1.0242-0.3892,1.4142,0.0018l4,4
	c0.391,0.391,0.391,1.025,0,1.416s-1.025,0.391-1.416,0L9,3.4158V11.0018z"/>
</svg>
