<?xml version="1.0" encoding="utf-8"?>
<!-- Generator: Adobe Illustrator 22.0.0, SVG Export Plug-In . SVG Version: 6.00 Build 0)  -->
<svg version="1.1" xmlns="http://www.w3.org/2000/svg" xmlns:xlink="http://www.w3.org/1999/xlink" x="0px" y="0px"
	 viewBox="0 0 16 16" style="enable-background:new 0 0 16 16;" xml:space="preserve">
<style type="text/css">
	.st0{display:none;}
	.st1{display:inline;fill:#494A4A;}
	.st2{fill:#FFFFFF;}
</style>
<g id="Layer_1" class="st0">
	<path class="st1" d="M2.2727,15h11.4545v-1.2727H15V8.6364h-1.2727V6.0909h-1.2727V4.8182H3.5455v1.2727H2.2727v2.5455H1v5.0909
		h1.2727V15z M6.0909,12.4545v-1.2727h1.2727V9.9091H4.8182V8.6364h2.5455V7.3636h1.2727v1.2727h2.5455v1.2727H8.6364v1.2727h1.2727
		v1.2727H8.6364v-1.2727H7.3636v1.2727H6.0909z M3.5455,3.5455h8.9091V2.2727h1.2727V1H2.2727v1.2727h1.2727V3.5455z"/>
</g>
<g id="Layer_2">
	<polygon class="st2" points="12.4545,3.5455 3.5455,3.5455 2.2727,1 13.7273,1 	"/>
	<path class="st2" d="M14.913,9.2346l-2.4584-4.4164H3.5455L1.087,9.2346c-0.6729,1.2087-0.6509,2.6844,0.0574,3.8727
		C1.8441,14.281,3.1097,15,4.4762,15h7.0476c1.3665,0,2.6321-0.719,3.3317-1.8927C15.5639,11.919,15.5858,10.4434,14.913,9.2346z
		 M8,10.8182c-1.1046,0-2-0.8954-2-2s0.8954-2,2-2s2,0.8954,2,2S9.1046,10.8182,8,10.8182z"/>
</g>
</svg>
