<?xml version="1.0" encoding="utf-8"?>
<!-- Generator: Adobe Illustrator 22.0.0, SVG Export Plug-In . SVG Version: 6.00 Build 0)  -->
<svg version="1.1" id="Layer_1" xmlns="http://www.w3.org/2000/svg" xmlns:xlink="http://www.w3.org/1999/xlink" x="0px" y="0px"
	 viewBox="0 0 16 16" style="enable-background:new 0 0 16 16;" xml:space="preserve">
<style type="text/css">
	.st0{fill:#FFFFFF;}
</style>
<path class="st0" d="M8,14.5c-0.3,0-0.5-0.2-0.5-0.5V2c0-0.3,0.2-0.5,0.5-0.5S8.5,1.7,8.5,2v12C8.5,14.3,8.3,14.5,8,14.5z"/>
<path class="st0" d="M3.7,8l2.1-2.1C6,5.7,6,5.3,5.9,5.1S5.3,5,5.1,5.1L3,7.3L0.9,5.1C0.7,5,0.3,5,0.1,5.1S0,5.7,0.1,5.9L2.3,8
	l-2.1,2.1c-0.2,0.2-0.2,0.5,0,0.7C0.2,11,0.4,11,0.5,11s0.3,0,0.4-0.1L3,8.7l2.1,2.1C5.2,11,5.4,11,5.5,11s0.3,0,0.4-0.1
	c0.2-0.2,0.2-0.5,0-0.7L3.7,8z"/>
<path class="st0" d="M15.8,4.7c-0.2-0.2-0.5-0.1-0.7,0.1L13,8l-2.1-3.2c-0.2-0.2-0.5-0.3-0.7-0.1C10,4.8,9.9,5.1,10.1,5.4l2.4,3.5
	l-1.1,1.7c-0.1,0.2-0.1,0.5,0.2,0.7c0.1,0.1,0.2,0.1,0.3,0.1c0.2,0,0.3-0.1,0.4-0.2l3.8-5.8C16.1,5.1,16,4.8,15.8,4.7z"/>
</svg>
