<?xml version="1.0" encoding="utf-8"?>
<!-- Generator: Adobe Illustrator 22.0.0, SVG Export Plug-In . SVG Version: 6.00 Build 0)  -->
<svg version="1.1" id="Layer_1" xmlns="http://www.w3.org/2000/svg" xmlns:xlink="http://www.w3.org/1999/xlink" x="0px" y="0px"
	 viewBox="0 0 16 16" style="enable-background:new 0 0 16 16;" xml:space="preserve">
<style type="text/css">
	.st0{fill:#6ACC33;}
	.st1{fill:#FFFFFF;}
</style>
<g>
	<path class="st0" d="M12.3,8.3V11H15v1.3h-2.7V15H11v-2.7H8.3V11H11V8.3H12.3z"/>
	<path class="st1" d="M5,10.3c-1.5,0-2.7,1.2-2.7,2.7h5.4v1.3H1V13c0-2.2,1.8-4,4-4h2.7v1.3H5z"/>
	<path class="st1" d="M7.3,1c-2,0-3.7,1.6-3.7,3.7s1.6,3.7,3.7,3.7c2,0,3.7-1.6,3.7-3.7S9.4,1,7.3,1z M7.3,7C6,7,5,6,5,4.7
		s1-2.3,2.3-2.3s2.3,1,2.3,2.3S8.6,7,7.3,7z"/>
</g>
</svg>
