<?xml version="1.0" encoding="utf-8"?>
<!-- Generator: Adobe Illustrator 22.0.0, SVG Export Plug-In . SVG Version: 6.00 Build 0)  -->
<svg version="1.1" id="Layer_1" xmlns="http://www.w3.org/2000/svg" xmlns:xlink="http://www.w3.org/1999/xlink" x="0px" y="0px"
	 viewBox="0 0 16 16" style="enable-background:new 0 0 16 16;" xml:space="preserve">
<style type="text/css">
	.st0{fill:#FFFFFF;}
</style>
<path class="st0" d="M8,2.7C5.1,2.7,2.7,5.1,2.7,8s2.4,5.3,5.3,5.3s5.3-2.4,5.3-5.3S10.9,2.7,8,2.7 M1.3,8c0-3.7,3-6.7,6.7-6.7
	s6.7,3,6.7,6.7s-3,6.7-6.7,6.7S1.3,11.7,1.3,8 M11.1,5.8c0.3,0.2,0.3,0.7,0.1,0.9l-3.6,4c-0.2,0.3-0.7,0.3-0.9,0.1c0,0,0,0-0.1-0.1
	l-1.8-2C4.6,8.5,4.6,8.1,4.9,7.8c0.3-0.2,0.7-0.2,0.9,0.1l1.3,1.4l3.1-3.4C10.4,5.6,10.8,5.6,11.1,5.8"/>
</svg>
