<?xml version="1.0" encoding="utf-8"?>
<!-- Generator: Adobe Illustrator 22.0.0, SVG Export Plug-In . SVG Version: 6.00 Build 0)  -->
<svg version="1.1" id="Layer_1" xmlns="http://www.w3.org/2000/svg" xmlns:xlink="http://www.w3.org/1999/xlink" x="0px" y="0px"
	 viewBox="0 0 16 16" style="enable-background:new 0 0 16 16;" xml:space="preserve">
<style type="text/css">
	.st0{fill:#FFFFFF;}
</style>
<path class="st0" d="M3.5,3.5c0.3-0.3,0.7-0.3,0.9,0L8,7l3.5-3.5c0.3-0.3,0.7-0.3,0.9,0c0.3,0.3,0.3,0.7,0,0.9c0,0,0,0,0,0L8.9,8
	l3.5,3.5c0.3,0.3,0.2,0.7,0,0.9c-0.3,0.2-0.7,0.2-0.9,0L8,8.9l-3.5,3.5c-0.3,0.3-0.7,0.2-0.9,0c-0.2-0.3-0.2-0.7,0-0.9L7.1,8
	L3.5,4.5C3.3,4.2,3.3,3.8,3.5,3.5"/>
</svg>
