<?xml version="1.0" encoding="utf-8"?>
<!-- Generator: Adobe Illustrator 22.0.0, SVG Export Plug-In . SVG Version: 6.00 Build 0)  -->
<svg version="1.1" id="Layer_1" xmlns="http://www.w3.org/2000/svg" xmlns:xlink="http://www.w3.org/1999/xlink" x="0px" y="0px"
	 viewBox="0 0 16 16" style="enable-background:new 0 0 16 16;" xml:space="preserve">
<style type="text/css">
	.st0{fill:#FFFFFF;}
</style>
<path class="st0" d="M14,15H4.9c-0.6,0-1-0.4-1-1v-1.9H2c-0.6,0-1-0.4-1-1V2c0-0.6,0.4-1,1-1h9.1c0.6,0,1,0.4,1,1v1.9H14
	c0.6,0,1,0.4,1,1V14C15,14.6,14.6,15,14,15z M5.9,13H13V5.9H5.9V13z M3,10.1h0.9V4.9c0-0.6,0.4-1,1-1h5.2V3H3V10.1z"/>
</svg>
