<?xml version="1.0" encoding="utf-8"?>
<!-- Generator: Adobe Illustrator 22.0.0, SVG Export Plug-In . SVG Version: 6.00 Build 0)  -->
<svg version="1.1" id="Layer_1" xmlns="http://www.w3.org/2000/svg" xmlns:xlink="http://www.w3.org/1999/xlink" x="0px" y="0px"
	 viewBox="0 0 16 16" style="enable-background:new 0 0 16 16;" xml:space="preserve">
<style type="text/css">
	.st0{fill:#FFFFFF;}
</style>
<path class="st0" d="M8,2.7C5.1,2.7,2.7,5.1,2.7,8s2.4,5.3,5.3,5.3s5.3-2.4,5.3-5.3S10.9,2.7,8,2.7 M1.3,8c0-3.7,3-6.7,6.7-6.7
	s6.7,3,6.7,6.7s-3,6.7-6.7,6.7S1.3,11.7,1.3,8 M5.2,5.2c0.3-0.3,0.7-0.3,0.9,0L8,7.1l1.9-1.9c0.3-0.3,0.7-0.3,0.9,0s0.3,0.7,0,0.9
	c0,0,0,0,0,0L8.9,8l1.9,1.9c0.3,0.3,0.2,0.7,0,0.9c-0.3,0.2-0.7,0.2-0.9,0L8,8.9l-1.9,1.9c-0.3,0.3-0.7,0.2-0.9,0
	c-0.2-0.3-0.2-0.7,0-0.9L7.1,8L5.2,6.1C4.9,5.9,4.9,5.5,5.2,5.2"/>
</svg>
