<?xml version="1.0" encoding="utf-8"?>
<!-- Generator: Adobe Illustrator 22.0.0, SVG Export Plug-In . SVG Version: 6.00 Build 0)  -->
<svg version="1.1" id="Layer_1" xmlns="http://www.w3.org/2000/svg" xmlns:xlink="http://www.w3.org/1999/xlink" x="0px" y="0px"
	 viewBox="0 0 16 16" style="enable-background:new 0 0 16 16;" xml:space="preserve">
<style type="text/css">
	.st0{fill:#FFFFFF;}
</style>
<path class="st0" d="M8.2,0.7c0.3-0.3,0.8-0.3,1.1,0L11.5,3c0.3,0.3,0.3,0.8,0,1.1L9.3,6.3C9,6.6,8.5,6.6,8.2,6.3
	c-0.3-0.3-0.3-0.8,0-1l1-1H8c-2.7,0-4.9,2.2-4.9,4.9S5.3,14,8,14s4.9-2.2,4.9-4.9c0-0.4,0.3-0.8,0.8-0.8s0.8,0.3,0.8,0.8
	c0,3.5-2.9,6.4-6.4,6.4s-6.4-2.9-6.4-6.4S4.5,2.7,8,2.7h1.2l-1-1C7.9,1.5,7.9,1,8.2,0.7"/>
</svg>
