<?xml version="1.0" encoding="utf-8"?>
<!-- Generator: Adobe Illustrator 22.0.0, SVG Export Plug-In . SVG Version: 6.00 Build 0)  -->
<svg version="1.1" id="Layer_1" xmlns="http://www.w3.org/2000/svg" xmlns:xlink="http://www.w3.org/1999/xlink" x="0px" y="0px"
	 viewBox="0 0 16 16" style="enable-background:new 0 0 16 16;" xml:space="preserve">
<style type="text/css">
	.st0{fill:#FFFFFF;}
</style>
<g>
	<g>
		<path class="st0" d="M14.8,2.5l-1.7-1.7c-0.2-0.2-0.5-0.4-0.9-0.4H5.2C4.5,0.5,4,1,4,1.7v1.8h1.2V1.7h1.2v1.2
			c0,0.7,0.5,1.2,1.2,1.2h3.7c0.7,0,1.2-0.5,1.2-1.2V2l1.2,1.2v7.1H13v1.2h0.8c0.7,0,1.2-0.5,1.2-1.2V2.9C15,2.8,14.9,2.6,14.8,2.5z
			 M11.3,2.9H7.7V1.7h3.7V2.9z"/>
	</g>
	<path class="st0" d="M1,5.7C1,5,1.5,4.5,2.2,4.5h7.1c0.3,0,0.6,0.1,0.9,0.4l1.7,1.7C11.9,6.6,12,6.8,12,6.9v7.3
		c0,0.7-0.5,1.2-1.2,1.2H2.2C1.5,15.5,1,15,1,14.3V5.7z M4.7,14.3h3.7v-3.7H4.7V14.3z M9.6,14.3h1.2V7.2L9.6,6v1
		c0,0.7-0.5,1.2-1.2,1.2H4.7C4,8.2,3.4,7.6,3.4,6.9V5.7H2.2v8.6h1.2v-3.7c0-0.7,0.5-1.2,1.2-1.2h3.7c0.7,0,1.2,0.5,1.2,1.2V14.3z
		 M4.7,5.7v1.2h3.7V5.7H4.7z"/>
</g>
</svg>
