<?xml version="1.0" encoding="utf-8"?>
<!-- Generator: Adobe Illustrator 22.0.0, SVG Export Plug-In . SVG Version: 6.00 Build 0)  -->
<svg version="1.1" id="Layer_1" xmlns="http://www.w3.org/2000/svg" xmlns:xlink="http://www.w3.org/1999/xlink" x="0px" y="0px"
	 viewBox="0 0 16 16" style="enable-background:new 0 0 16 16;" xml:space="preserve">
<style type="text/css">
	.st0{fill:#FFFFFF;}
</style>
<path class="st0" d="M2,3.3C2,2.6,2.6,2,3.3,2h7.7c0.4,0,0.7,0.1,0.9,0.4l1.8,1.8C13.9,4.3,14,4.5,14,4.7v8c0,0.7-0.6,1.3-1.3,1.3
	H3.3C2.6,14,2,13.4,2,12.7V3.3z M6,12.7h4v-4H6V12.7z M11.3,12.7h1.3V4.9l-1.3-1.3v1.1C11.3,5.4,10.7,6,10,6H6
	C5.3,6,4.7,5.4,4.7,4.7V3.3H3.3v9.3h1.3v-4c0-0.7,0.6-1.3,1.3-1.3h4c0.7,0,1.3,0.6,1.3,1.3V12.7z M6,3.3v1.3h4V3.3H6z"/>
</svg>
