<?xml version="1.0" encoding="utf-8"?>
<!-- Generator: Adobe Illustrator 22.0.0, SVG Export Plug-In . SVG Version: 6.00 Build 0)  -->
<svg version="1.1" id="Layer_1" xmlns="http://www.w3.org/2000/svg" xmlns:xlink="http://www.w3.org/1999/xlink" x="0px" y="0px"
	 viewBox="0 0 32 32" style="enable-background:new 0 0 32 32;" xml:space="preserve">
<style type="text/css">
	.st0{fill:#FFFFFF;}
</style>
<path class="st0" d="M25.8,4.4L21.1,12l-0.5-2l-1.9,5.6l3.9-1.8l0,1.8l7.9-3.2l-4.4-0.1l3-4.3l-4.6,2.5L25.8,4.4L25.8,4.4z
	 M13.1,6.4l-2,0.9l1.1,3.5l-11.1,5l0.8,1.7l11.1-5l1.9,3.1l3.1-1.4l-1.3-4.4L13.1,6.4L13.1,6.4z M12.3,16.7v1.3H6.8
	c1,2.4,3.2,4.1,5.6,4.6v2.1H16c-0.8,1.9-2.1,3.5-3.7,4.8h-1.6v1.2h17.8v-1.2h-1.7c-1.8-1.4-3.1-2.9-3.9-4.8h4v-1.8
	c1.2-0.4,2.5-1.2,3.7-2.3c-1.2-1.1-2.5-1.7-3.7-2v-1.9L12.3,16.7L12.3,16.7z"/>
</svg>
