<?xml version="1.0" encoding="utf-8"?>
<!-- Generator: Adobe Illustrator 22.0.0, SVG Export Plug-In . SVG Version: 6.00 Build 0)  -->
<svg version="1.1" id="Layer_1" xmlns="http://www.w3.org/2000/svg" xmlns:xlink="http://www.w3.org/1999/xlink" x="0px" y="0px"
	 viewBox="0 0 16 16" style="enable-background:new 0 0 16 16;" xml:space="preserve">
<style type="text/css">
	.st0{fill:#FFFFFF;}
</style>
<path class="st0" d="M12.3,15H3.8C3.3,15,3,14.7,3,14.3V5.5H2.8C2.3,5.5,2,5.2,2,4.8S2.3,4,2.8,4H5V1.8C5,1.3,5.3,1,5.8,1h4.5
	C10.7,1,11,1.3,11,1.8V4h2.3C13.7,4,14,4.3,14,4.8s-0.3,0.8-0.8,0.8H13v8.8C13,14.7,12.7,15,12.3,15z M4.5,13.5h7v-8h-7V13.5z
	 M6.5,4h3V2.5h-3V4z"/>
</svg>
