<?xml version="1.0" encoding="utf-8"?>
<!-- Generator: Adobe Illustrator 22.0.0, SVG Export Plug-In . SVG Version: 6.00 Build 0)  -->
<svg version="1.1" id="Layer_1" xmlns="http://www.w3.org/2000/svg" xmlns:xlink="http://www.w3.org/1999/xlink" x="0px" y="0px"
	 viewBox="0 0 16 16" style="enable-background:new 0 0 16 16;" xml:space="preserve">
<style type="text/css">
	.st0{fill:#6FBE44;}
	.st1{fill:#4593EC;}
</style>
<g>
	<polygon class="st0" points="15.5,11.1 12.9,11.1 12.9,8.5 11.1,8.5 11.1,11.1 8.5,11.1 8.5,12.9 11.1,12.9 11.1,15.5 12.9,15.5 
		12.9,12.9 15.5,12.9 	"/>
</g>
<g>
	<path class="st1" d="M13.3,8.1v2.6H14V8c0-0.6,0.4-1,1-1V5c-1.7,0-3,1.3-3,3v0.1H13.3z"/>
	<path class="st1" d="M9.7,10.7h1V9C10.3,8.8,10,8.5,10,8V7h1V5h-1V3H8v5C8,9.2,8.7,10.3,9.7,10.7z"/>
	<path class="st1" d="M1.5,5.5C1.5,6.9,2.6,8,4,8c0.3,0,0.5,0.2,0.5,0.5S4.3,9,4,9H1v2h3c1.4,0,2.5-1.1,2.5-2.5S5.4,6,4,6
		C3.7,6,3.5,5.8,3.5,5.5S3.7,5,4,5h3V3H4C2.6,3,1.5,4.1,1.5,5.5z"/>
</g>
</svg>
